<?xml version="1.0" encoding="UTF-8" standalone="no"?>
<!-- Created with Inkscape (http://www.inkscape.org/) -->

<svg
   width="919.8476mm"
   height="8.9855633mm"
   viewBox="0 0 919.8476 8.9855634"
   version="1.1"
   id="svg21934"
   inkscape:version="1.1.2 (0a00cf5339, 2022-02-04)"
   sodipodi:docname="wave-line.svg"
   xmlns:inkscape="http://www.inkscape.org/namespaces/inkscape"
   xmlns:sodipodi="http://sodipodi.sourceforge.net/DTD/sodipodi-0.dtd"
   xmlns="http://www.w3.org/2000/svg"
   xmlns:svg="http://www.w3.org/2000/svg">
  <sodipodi:namedview
     id="namedview21936"
     pagecolor="#ffffff"
     bordercolor="#666666"
     borderopacity="1.0"
     inkscape:pageshadow="2"
     inkscape:pageopacity="0.0"
     inkscape:pagecheckerboard="0"
     inkscape:document-units="mm"
     showgrid="false"
     fit-margin-top="0"
     fit-margin-left="0"
     fit-margin-right="0"
     fit-margin-bottom="0"
     inkscape:zoom="0.63339646"
     inkscape:cx="1864.551"
     inkscape:cy="404.95963"
     inkscape:window-width="954"
     inkscape:window-height="1172"
     inkscape:window-x="960"
     inkscape:window-y="22"
     inkscape:window-maximized="1"
     inkscape:current-layer="layer1" />
  <defs
     id="defs21931" />
  <g
     inkscape:label="Layer 1"
     inkscape:groupmode="layer"
     id="layer1"
     transform="translate(388.4934,-41.22439)">
    <path
       d="m -388.4934,42.339301 c 0,-0.61593 1.3529,-1.114911 3.02507,-1.114911 12.09322,0 22.3968,1.645079 32.35748,3.234283 7.69197,1.229261 14.95884,2.387054 22.99335,2.848352 14.97083,0.868019 28.65331,-0.689998 43.17506,-2.32858 10.1734,-1.148696 20.68936,-2.337676 31.69003,-2.626149 12.96176,-0.333954 25.12624,1.148696 36.824,2.589765 7.49123,0.922596 15.23647,1.875078 22.98735,2.299992 12.46011,0.671806 23.93315,-0.803048 36.05636,-2.376659 8.86742,-1.148696 18.04246,-2.337675 27.90895,-2.674228 13.11556,-0.444405 23.77933,1.035647 34.077616,2.474116 5.1435,0.717286 10.473972,1.46186 16.146649,1.975135 20.789194,1.880276 40.93986,-0.574348 58.733971,-2.749595 23.28333269,-2.85355 42.354499,-1.069432 62.554554,0.817341 6.833305,0.638021 13.9065,1.299431 21.357166,1.799712 14.178139,0.949884 27.375555,-0.652314 41.373774,-2.348071 15.28939,-1.858186 31.08678,-3.777445 48.25295,-2.086886 4.43794,0.437908 8.87941,0.925195 13.34205,1.412481 12.45306,1.367001 25.33297,2.779482 38.23053,3.038069 12.32958,0.229999 23.59378,-1.055138 35.50708,-2.435133 5.1435,-0.596439 10.45986,-1.212369 15.88911,-1.695757 15.31408,-1.359204 28.37039,0.402823 40.98925,2.111575 6.39233,0.865421 12.99986,1.762028 19.85786,2.241518 14.82725,1.035646 30.75164,0.680901 46.07631,-1.018754 l 3.28436,-0.36514 c 14.31925,-1.602198 29.02655,-3.225187 44.42883,-3.022476 10.05417,0.155932 18.32328,1.52943 26.31722,2.858748 6.18067,1.025251 12.01208,1.995925 18.6302,2.445528 16.81338,1.143499 28.08463,-0.804347 40.04027,-2.867843 10.12825,-1.745136 20.59517,-3.551344 34.71686,-3.551344 1.67217,0 3.02331,0.498981 3.02331,1.114911 0,0.61593 -1.35114,1.113612 -3.02331,1.113612 -12.77408,0 -22.18266,1.622989 -32.15216,3.340837 -9.77195,1.686661 -19.80848,3.416203 -32.90711,3.416203 -3.37961,0 -6.96384,-0.115649 -10.79853,-0.376835 -7.33778,-0.497682 -13.78303,-1.568413 -20.01661,-2.604059 -7.81403,-1.299431 -15.19414,-2.524794 -24.08414,-2.662534 -14.26281,-0.255987 -28.58558,1.377397 -42.42153,2.925019 l -3.29141,0.367739 c -16.256,1.804909 -33.1717,2.176546 -48.94439,1.075928 -7.35542,-0.514574 -14.20283,-1.443667 -20.82447,-2.340274 -12.31195,-1.66717 -23.92892,-3.239481 -37.48264,-2.034908 -5.22817,0.463896 -10.44222,1.069431 -15.494,1.654175 -11.90625,1.377396 -24.26406,2.796374 -37.65197,2.533889 -13.60664,-0.27288 -26.83581,-1.721745 -39.63106,-3.12513 -4.40266,-0.483389 -8.79122,-0.964178 -13.16919,-1.395589 -15.40581,-1.525532 -29.69331,0.211807 -44.80278,2.047903 -14.096998,1.712649 -28.712581,3.46948 -44.351219,2.426037 C 52.655901,48.18544 45.483929,47.516233 38.548318,46.869117 18.415291,44.984942 0.99865202,43.359354 -20.612514,46.004995 c -18.559639,2.267507 -39.578138,4.837781 -62.081832,2.798974 -6.032511,-0.545761 -11.532316,-1.312425 -16.848677,-2.0544 -10.097207,-1.409882 -19.603157,-2.758691 -31.377447,-2.338975 -9.11614,0.310564 -17.93629,1.454063 -26.46151,2.55728 -12.28267,1.591802 -25.00807,3.232983 -38.9449,2.475415 -8.27723,-0.449603 -16.27647,-1.435871 -24.0157,-2.388354 -11.65049,-1.43717 -22.6568,-2.801572 -34.48438,-2.479313 -10.30958,0.270281 -20.49463,1.421577 -30.34313,2.53259 -14.53338,1.641181 -29.55113,3.338238 -45.88086,2.401348 -8.79651,-0.505479 -16.76083,-1.776322 -24.46443,-3.005583 -9.82486,-1.569712 -19.11209,-3.051064 -29.95295,-3.051064 -1.67217,0 -3.02507,-0.497682 -3.02507,-1.113612"
       style="fill:#000000;fill-opacity:1;fill-rule:nonzero;stroke:none;stroke-width:0.0214105"
       id="path21897" />
  </g>
</svg>
