<svg version="1.1" viewBox="0 0 86.4 48" xmlns="http://www.w3.org/2000/svg" xmlns:cc="http://creativecommons.org/ns#" xmlns:dc="http://purl.org/dc/elements/1.1/" xmlns:rdf="http://www.w3.org/1999/02/22-rdf-syntax-ns#"> <title>Pagegen logo</title> <path fill="currentColor" stroke-width="0" d="m1.6 48h-1.6v-16h9.6v9.6h-6.4v6.4zm3.2-9.6h1.6v-3.2h-3.2v3.2zm12.8 9.6h-4.8v-9.6h6.4v-3.2h-6.4v-3.2h9.6v16zm0-3.2h1.6v-3.2h-3.2v3.2zm12.8 3.2h-4.8v-3.2h6.4v-3.2h-6.4v-9.6h9.6v16zm0-9.6h1.6v-3.2h-3.2v3.2zm12.8 9.6h-4.8v-16h9.6v9.6h-6.4v3.2h6.4v3.2zm0-9.6h1.6v-3.2h-3.2v3.2zm12.8 9.6h-4.8v-3.2h6.4v-3.2h-6.4v-9.6h9.6v16zm0-9.6h1.6v-3.2h-3.2v3.2zm12.8 9.6h-4.8v-16h9.6v9.6h-6.4v3.2h6.4v3.2zm0-9.6h1.6v-3.2h-3.2v3.2zm9.6 9.6h-1.6v-16h6.4v3.2h3.2v12.8h-3.2v-9.6h-3.2v9.6zm-35.2-22.4h-11.2v-25.6h6.4v9.6h16v16zm-4.8-6.4h3.2v-6.4h-6.4v6.4zm9.6 0h3.2v-6.4h-6.4v6.4z"></path> </svg>
