<?xml version="1.0" encoding="UTF-8" standalone="no"?>
<!-- Created with Inkscape (http://www.inkscape.org/) -->

<svg
   width="110.36427mm"
   height="119.34164mm"
   viewBox="0 0 110.36427 119.34164"
   version="1.1"
   id="svg151"
   inkscape:version="1.1.2 (0a00cf5339, 2022-02-04)"
   sodipodi:docname="favicon_source.svg"
   xmlns:inkscape="http://www.inkscape.org/namespaces/inkscape"
   xmlns:sodipodi="http://sodipodi.sourceforge.net/DTD/sodipodi-0.dtd"
   xmlns="http://www.w3.org/2000/svg"
   xmlns:svg="http://www.w3.org/2000/svg">
  <sodipodi:namedview
     id="namedview153"
     pagecolor="#ffffff"
     bordercolor="#666666"
     borderopacity="1.0"
     inkscape:pageshadow="2"
     inkscape:pageopacity="0.0"
     inkscape:pagecheckerboard="0"
     inkscape:document-units="mm"
     showgrid="false"
     fit-margin-top="0"
     fit-margin-left="0"
     fit-margin-right="0"
     fit-margin-bottom="0"
     inkscape:zoom="0.63339646"
     inkscape:cx="259.71095"
     inkscape:cy="324.44134"
     inkscape:window-width="1914"
     inkscape:window-height="1172"
     inkscape:window-x="0"
     inkscape:window-y="22"
     inkscape:window-maximized="1"
     inkscape:current-layer="layer1" />
  <defs
     id="defs148">
    <inkscape:path-effect
       effect="powerclip"
       id="path-effect1753"
       is_visible="true"
       lpeversion="1"
       inverse="true"
       flatten="false"
       hide_clip="false"
       message="Use fill-rule evenodd on &lt;b&gt;fill and stroke&lt;/b&gt; dialog if no flatten result after convert clip to paths." />
    <clipPath
       clipPathUnits="userSpaceOnUse"
       id="clipPath1749">
      <path
         id="lpe_path-effect1753"
         style="fill:#1cabf2;fill-opacity:1;fill-rule:nonzero;stroke:none;stroke-width:0.0352777"
         class="powerclip"
         d="M 53.324287,52.272705 H 173.68855 V 181.61435 H 53.324287 Z M 500.75817,149.97958 c 1.2206,-1.11478 1.30527,-3.00567 0.19402,-4.21922 -1.11125,-1.21708 -2.99506,-1.30175 -4.21921,-0.1905 -8.4596,7.71525 -23.49854,5.45394 -32.22273,-1.51695 -6.8721,-5.48922 -11.47585,-15.42344 -10.71033,-23.11752 0.49038,-4.90714 3.0339,-8.57603 7.55298,-10.90436 2.57175,-1.31939 4.1769,-3.85586 4.29329,-6.78392 0.12348,-2.99861 -1.36877,-5.834946 -3.90171,-7.401279 -6.99558,-4.328583 -18.796,-7.736417 -35.3201,0.723196 -10.414,5.337523 -17.526,15.550443 -23.79488,24.567443 -1.04068,1.49578 -2.06727,2.96333 -3.08681,4.39561 -0.98777,1.37583 -1.95437,2.77989 -2.92804,4.18747 -5.90902,8.56192 -11.48646,16.64759 -21.19842,19.44864 -8.53016,2.46592 -17.88231,0.56092 -24.99783,-5.11528 -6.8721,-5.48922 -11.47585,-15.4305 -10.70327,-23.11752 0.49035,-4.90714 3.03387,-8.57603 7.55296,-10.90436 2.57175,-1.31939 4.17689,-3.85586 4.29331,-6.78392 0.12348,-2.99861 -1.36877,-5.834946 -3.90173,-7.401279 -6.9991,-4.335637 -18.80658,-7.74347 -35.3201,0.723196 -9.94127,5.090583 -17.36725,15.550443 -25.22715,26.627663 -5.715,8.05039 -11.63106,16.37947 -18.55256,22.37317 -8.4561,7.71525 -23.49149,5.45394 -32.22626,-1.51695 -6.87211,-5.48922 -11.47234,-15.42344 -10.70328,-23.11399 0.49036,-4.91067 3.02683,-8.57956 7.55297,-10.90789 2.56822,-1.31939 4.16983,-3.85586 4.29331,-6.78392 0.11641,-2.99156 -1.37584,-5.834946 -3.90878,-7.401279 -6.98853,-4.328583 -18.78895,-7.754054 -35.31306,0.723196 -10.42105,5.337523 -17.53658,15.561023 -23.8125,24.581553 -1.03363,1.4852 -2.05316,2.95628 -3.07622,4.3815 -0.98425,1.37583 -1.95439,2.77989 -2.92805,4.18747 -5.90903,8.56192 -11.48645,16.64759 -21.19842,19.44864 -8.54428,2.46239 -17.88583,0.56092 -24.9943,-5.11528 -6.87212,-5.48922 -11.47587,-15.4305 -10.70681,-23.11752 0.49036,-4.90714 3.03389,-8.57603 7.5565,-10.90436 2.57175,-1.31939 4.17689,-3.85586 4.29331,-6.78392 0.11994,-2.99861 -1.37231,-5.834946 -3.90525,-7.401279 -7.00617,-4.328583 -18.79248,-7.736417 -35.320115,0.723196 -9.941279,5.090583 -17.36725,15.550443 -25.223618,26.627663 -5.718521,8.05039 -11.631081,16.37947 -18.55611,22.37317 -8.463132,7.73994 -23.502052,5.45394 -32.222719,-1.51695 -6.8721111,-5.48922 -11.4758602,-15.42344 -10.7068051,-23.11399 0.490361,-4.91067 3.02683295,-8.57956 7.5565,-10.90789 2.57175,-1.31939 4.176889,-3.85586 4.2933051,-6.78392 0.1199449,-2.99861 -1.3723051,-5.834946 -3.90525,-7.401279 -6.9991101,-4.335637 -18.806582,-7.74347 -35.320109,0.723196 -10.417527,5.337523 -17.536583,15.561023 -23.8125,24.581553 -1.03364,1.4852 -2.053167,2.95628 -3.072694,4.3815 -0.987779,1.37583 -1.961446,2.77989 -2.928056,4.19453 -5.909027,8.55486 -11.486444,16.64053 -21.19489,19.44158 -8.558387,2.48003 -17.896414,0.55386 -24.994309,-5.11528 -6.87211,-5.48922 -11.47586,-15.4305 -10.71033,-23.11752 0.49036,-4.90714 3.03389,-8.57603 7.55297,-10.90436 2.57175,-1.31939 4.17689,-3.85586 4.29331,-6.78392 0.12347,-2.99861 -1.36878,-5.834946 -3.90172,-7.401279 -6.99911,-4.328583 -18.796,-7.736417 -35.32223,0.723196 -9.93987,5.090583 -17.36019,15.543393 -25.21797,26.624133 -5.7164,8.05392 -11.63178,16.383 -18.56175,22.3767 -8.46419,7.73994 -23.49147,5.45394 -32.22413,-1.51695 -6.87176,-5.48922 -11.4741,-15.42344 -10.70434,-23.11399 0.49001,-4.91067 3.02754,-8.57956 7.55439,-10.90789 2.57245,-1.31939 4.17689,-3.85586 4.2933,-6.78392 0.12277,-2.99861 -1.37089,-5.834946 -3.90242,-7.401279 -7.00617,-4.335637 -18.81294,-7.74347 -35.32153,0.723196 -10.41859,5.337523 -17.53516,15.561023 -23.81214,24.581553 -1.03259,1.4852 -2.05351,2.95628 -3.07411,4.3815 -0.99166,1.37936 -1.96004,2.78695 -2.93439,4.19806 -5.90341,8.55839 -11.48011,16.637 -21.18715,19.43805 -8.55768,2.48003 -17.89676,0.55386 -24.99606,-5.11528 -6.87175,-5.48922 -11.47445,-15.42344 -10.71033,-23.11752 0.49001,-4.90714 3.03353,-8.57603 7.55438,-10.90436 2.57247,-1.31939 4.17653,-3.85586 4.29332,-6.78392 0.12274,-2.99861 -1.37091,-5.834946 -3.90245,-7.401279 -6.98852,-4.328583 -18.80129,-7.736417 -35.31587,0.723196 -9.93986,5.090583 -17.36619,15.550443 -25.2236,26.624133 -5.72278,8.05392 -11.6318,16.383 -18.5039,22.32378 -1.24814,1.07245 -1.38255,2.96334 -0.3034,4.21217 1.0795,1.2453 2.96934,1.38289 4.21183,0.30339 7.41468,-6.40645 13.5396,-15.03892 19.46627,-23.38211 7.41997,-10.45986 14.43778,-20.34117 23.07132,-24.76147 14.0236,-7.207256 23.74794,-4.497922 29.44704,-0.97014 0.71191,0.4445 1.12006,1.22414 1.08516,2.08139 -0.0173,0.45155 -0.18063,1.26647 -1.05587,1.72155 -6.35246,3.26672 -10.07428,8.66775 -10.76254,15.62453 -0.96837,9.68728 4.46265,21.62175 12.91519,28.37391 8.62753,6.8827 19.96794,9.19692 30.38652,6.18773 11.75983,-3.3902 18.20579,-12.73881 24.44784,-21.78756 0.9511,-1.38289 1.90149,-2.75872 2.8702,-4.11339 1.03789,-1.44639 2.07645,-2.93511 3.12632,-4.445 6.16622,-8.86177 12.54196,-18.01989 21.63057,-22.67302 14.02363,-7.207256 23.74795,-4.497922 29.44742,-0.97014 0.71156,0.4445 1.11975,1.22414 1.08515,2.08139 -0.0176,0.45155 -0.18133,1.26647 -1.05622,1.72155 -6.35247,3.26672 -10.07427,8.66775 -10.76854,15.62453 -0.96838,9.68728 4.46864,21.62175 12.92119,28.37391 10.61685,8.4702 28.91649,11.37356 39.91822,1.31234 7.42032,-6.4135 13.54525,-15.03892 19.46627,-23.38917 7.41997,-10.45633 14.43214,-20.33411 23.06532,-24.75441 14.03702,-7.207256 23.75252,-4.497922 29.45341,-0.97014 0.71261,0.4445 1.11833,1.22414 1.08303,2.08139 -0.0176,0.45155 -0.17992,1.26647 -1.05481,1.72155 -6.35352,3.26672 -10.07533,8.66775 -10.76677,15.61747 -0.97014,9.68728 4.46616,21.62528 12.91872,28.38097 8.62894,6.8827 19.970749,9.19692 30.388276,6.18773 11.754556,-3.39373 18.210389,-12.74586 24.454556,-21.79461 0.94897,-1.38289 1.90147,-2.75873 2.861027,-4.10634 1.040693,-1.44639 2.07786,-2.93511 3.129137,-4.445 6.166556,-8.86177 12.54125,-18.01989 21.62528,-22.67302 14.033498,-7.207256 23.7525259,-4.497922 29.4534149,-0.97014 0.709083,0.4445 1.1183079,1.22414 1.0830279,2.08139 -0.017639,0.45155 -0.1799169,1.26647 -1.0548059,1.72155 -6.3535279,3.26672 -10.0753331,8.66775 -10.7703051,15.62453 -0.966611,9.68728 4.4696941,21.62175 12.9222492,28.37391 10.611556,8.4702 28.92072,11.37356 39.916808,1.31234 7.415382,-6.40645 13.539611,-15.03539 19.46275,-23.38211 7.425971,-10.45986 14.435662,-20.34117 23.071662,-24.76147 14.040563,-7.207256 23.752533,-4.497922 29.453423,-0.97014 0.70908,0.4445 1.11833,1.22414 1.08303,2.08139 -0.0176,0.45155 -0.17992,1.26647 -1.05481,1.72155 -6.35353,3.26672 -10.07533,8.66775 -10.77031,15.61747 -0.96661,9.68728 4.46264,21.62528 12.92225,28.38097 8.61484,6.87564 19.96723,9.18634 30.38123,6.18773 11.75808,-3.39373 18.21744,-12.74586 24.45808,-21.79461 0.9525,-1.38289 1.90147,-2.75873 2.86455,-4.10634 1.03717,-1.44639 2.07787,-2.93511 3.12562,-4.445 6.16655,-8.86177 12.54477,-18.01989 21.62527,-22.67302 14.05467,-7.207256 23.77017,-4.497922 29.44636,-0.97014 0.71967,0.4445 1.12186,1.22414 1.08656,2.08844 -0.0176,0.44803 -0.17639,1.26647 -1.05128,1.7145 -6.35,3.26672 -10.0718,8.66775 -10.76678,15.62453 -0.97014,9.68728 4.46617,21.62175 12.9152,28.37391 5.89844,4.71312 14.16755,7.69762 22.24264,7.69762 6.45583,0 12.79172,-1.91206 17.68122,-6.38528 7.41539,-6.40645 13.5396,-15.03539 19.45923,-23.38211 7.42595,-10.45986 14.43918,-20.34117 23.07166,-24.76147 14.03702,-7.207256 23.75252,-4.497922 29.45342,-0.97014 0.7126,0.4445 1.11824,1.22414 1.08654,2.08139 -0.0176,0.45155 -0.18344,1.26647 -1.05833,1.72155 -6.35,3.26672 -10.07179,8.66775 -10.76677,15.61747 -0.97015,9.68728 4.46264,21.62528 12.91873,28.38097 8.61835,6.8827 19.98133,9.19692 30.3812,6.18773 11.76163,-3.39373 18.21744,-12.74586 24.46163,-21.79461 0.94896,-1.38289 1.90146,-2.75873 2.86454,-4.10634 1.03717,-1.45344 2.0814,-2.94569 3.13267,-4.45558 6.1595,-8.85472 12.53421,-18.01283 21.61116,-22.66244 14.03705,-7.207256 23.75255,-4.497922 29.45342,-0.97014 0.71263,0.4445 1.11826,1.22414 1.08656,2.08139 -0.0176,0.45155 -0.18343,1.26647 -1.05833,1.72155 -6.35352,3.26672 -10.07533,8.66775 -10.76325,15.62453 -0.9666,9.68728 4.46265,21.62175 12.91519,28.37391 10.6186,8.47373 28.92425,11.3665 39.98383,1.25942" />
    </clipPath>
  </defs>
  <g
     inkscape:label="Layer 1"
     inkscape:groupmode="layer"
     id="layer1"
     transform="translate(-36.400485,-62.668742)">
    <path
       id="path1763"
       clip-path="url(#clipPath1749)"
       d="M 168.68855,116.94353 A 55.182129,59.670822 0 0 1 113.50642,176.61435 55.182129,59.670822 0 0 1 58.324287,116.94353 55.182129,59.670822 0 0 1 113.50642,57.272705 55.182129,59.670822 0 0 1 168.68855,116.94353 Z"
       style="fill:#8aa2a8;stroke-width:0.234;fill-opacity:1"
       transform="translate(-21.923802,5.396037)"
       inkscape:export-filename="/home/oliver/Documents/tidesofsea/themes/ebbandflow/assets/favicon_source.png"
       inkscape:export-xdpi="96"
       inkscape:export-ydpi="96" />
  </g>
</svg>
