<?xml version="1.0" encoding="UTF-8" standalone="no"?>
<!-- Created with Inkscape (http://www.inkscape.org/) -->

<svg
   width="1200mm"
   height="630mm"
   viewBox="1200 630 1200 630.00004"
   version="1.1"
   id="svg151"
   inkscape:version="1.1.2 (0a00cf5339, 2022-02-04)"
   sodipodi:docname="hero-image.svg"
   inkscape:export-filename="/home/oliver/Documents/tidesofsea/themes/ebbandflow/assets/hero.png"
   inkscape:export-xdpi="96"
   inkscape:export-ydpi="96"
   xmlns:inkscape="http://www.inkscape.org/namespaces/inkscape"
   xmlns:sodipodi="http://sodipodi.sourceforge.net/DTD/sodipodi-0.dtd"
   xmlns="http://www.w3.org/2000/svg"
   xmlns:svg="http://www.w3.org/2000/svg">
  <sodipodi:namedview
     id="namedview153"
     pagecolor="#0a122a"
     bordercolor="#666666"
     borderopacity="1.0"
     inkscape:pageshadow="2"
     inkscape:pageopacity="0"
     inkscape:pagecheckerboard="0"
     inkscape:document-units="mm"
     showgrid="false"
     fit-margin-top="3"
     fit-margin-left="3"
     fit-margin-right="3"
     fit-margin-bottom="3"
     inkscape:zoom="0.15834912"
     inkscape:cx="2939.707"
     inkscape:cy="-438.90362"
     inkscape:window-width="1914"
     inkscape:window-height="1172"
     inkscape:window-x="0"
     inkscape:window-y="22"
     inkscape:window-maximized="1"
     inkscape:current-layer="layer1"
     lock-margins="true"
     height="630mm"
     units="mm" />
  <defs
     id="defs148">
    <inkscape:path-effect
       effect="powerclip"
       id="path-effect1753"
       is_visible="true"
       lpeversion="1"
       inverse="true"
       flatten="false"
       hide_clip="false"
       message="Use fill-rule evenodd on &lt;b&gt;fill and stroke&lt;/b&gt; dialog if no flatten result after convert clip to paths." />
    <clipPath
       clipPathUnits="userSpaceOnUse"
       id="clipPath1749">
      <path
         id="lpe_path-effect1753"
         style="fill:#1cabf2;fill-opacity:1;fill-rule:nonzero;stroke:none;stroke-width:0.0352777"
         class="powerclip"
         d="M 53.324287,52.272705 H 173.68855 V 181.61435 H 53.324287 Z M 500.75817,149.97958 c 1.2206,-1.11478 1.30527,-3.00567 0.19402,-4.21922 -1.11125,-1.21708 -2.99506,-1.30175 -4.21921,-0.1905 -8.4596,7.71525 -23.49854,5.45394 -32.22273,-1.51695 -6.8721,-5.48922 -11.47585,-15.42344 -10.71033,-23.11752 0.49038,-4.90714 3.0339,-8.57603 7.55298,-10.90436 2.57175,-1.31939 4.1769,-3.85586 4.29329,-6.78392 0.12348,-2.99861 -1.36877,-5.834946 -3.90171,-7.401279 -6.99558,-4.328583 -18.796,-7.736417 -35.3201,0.723196 -10.414,5.337523 -17.526,15.550443 -23.79488,24.567443 -1.04068,1.49578 -2.06727,2.96333 -3.08681,4.39561 -0.98777,1.37583 -1.95437,2.77989 -2.92804,4.18747 -5.90902,8.56192 -11.48646,16.64759 -21.19842,19.44864 -8.53016,2.46592 -17.88231,0.56092 -24.99783,-5.11528 -6.8721,-5.48922 -11.47585,-15.4305 -10.70327,-23.11752 0.49035,-4.90714 3.03387,-8.57603 7.55296,-10.90436 2.57175,-1.31939 4.17689,-3.85586 4.29331,-6.78392 0.12348,-2.99861 -1.36877,-5.834946 -3.90173,-7.401279 -6.9991,-4.335637 -18.80658,-7.74347 -35.3201,0.723196 -9.94127,5.090583 -17.36725,15.550443 -25.22715,26.627663 -5.715,8.05039 -11.63106,16.37947 -18.55256,22.37317 -8.4561,7.71525 -23.49149,5.45394 -32.22626,-1.51695 -6.87211,-5.48922 -11.47234,-15.42344 -10.70328,-23.11399 0.49036,-4.91067 3.02683,-8.57956 7.55297,-10.90789 2.56822,-1.31939 4.16983,-3.85586 4.29331,-6.78392 0.11641,-2.99156 -1.37584,-5.834946 -3.90878,-7.401279 -6.98853,-4.328583 -18.78895,-7.754054 -35.31306,0.723196 -10.42105,5.337523 -17.53658,15.561023 -23.8125,24.581553 -1.03363,1.4852 -2.05316,2.95628 -3.07622,4.3815 -0.98425,1.37583 -1.95439,2.77989 -2.92805,4.18747 -5.90903,8.56192 -11.48645,16.64759 -21.19842,19.44864 -8.54428,2.46239 -17.88583,0.56092 -24.9943,-5.11528 -6.87212,-5.48922 -11.47587,-15.4305 -10.70681,-23.11752 0.49036,-4.90714 3.03389,-8.57603 7.5565,-10.90436 2.57175,-1.31939 4.17689,-3.85586 4.29331,-6.78392 0.11994,-2.99861 -1.37231,-5.834946 -3.90525,-7.401279 -7.00617,-4.328583 -18.79248,-7.736417 -35.320115,0.723196 -9.941279,5.090583 -17.36725,15.550443 -25.223618,26.627663 -5.718521,8.05039 -11.631081,16.37947 -18.55611,22.37317 -8.463132,7.73994 -23.502052,5.45394 -32.222719,-1.51695 -6.8721111,-5.48922 -11.4758602,-15.42344 -10.7068051,-23.11399 0.490361,-4.91067 3.02683295,-8.57956 7.5565,-10.90789 2.57175,-1.31939 4.176889,-3.85586 4.2933051,-6.78392 0.1199449,-2.99861 -1.3723051,-5.834946 -3.90525,-7.401279 -6.9991101,-4.335637 -18.806582,-7.74347 -35.320109,0.723196 -10.417527,5.337523 -17.536583,15.561023 -23.8125,24.581553 -1.03364,1.4852 -2.053167,2.95628 -3.072694,4.3815 -0.987779,1.37583 -1.961446,2.77989 -2.928056,4.19453 -5.909027,8.55486 -11.486444,16.64053 -21.19489,19.44158 -8.558387,2.48003 -17.896414,0.55386 -24.994309,-5.11528 -6.87211,-5.48922 -11.47586,-15.4305 -10.71033,-23.11752 0.49036,-4.90714 3.03389,-8.57603 7.55297,-10.90436 2.57175,-1.31939 4.17689,-3.85586 4.29331,-6.78392 0.12347,-2.99861 -1.36878,-5.834946 -3.90172,-7.401279 -6.99911,-4.328583 -18.796,-7.736417 -35.32223,0.723196 -9.93987,5.090583 -17.36019,15.543393 -25.21797,26.624133 -5.7164,8.05392 -11.63178,16.383 -18.56175,22.3767 -8.46419,7.73994 -23.49147,5.45394 -32.22413,-1.51695 -6.87176,-5.48922 -11.4741,-15.42344 -10.70434,-23.11399 0.49001,-4.91067 3.02754,-8.57956 7.55439,-10.90789 2.57245,-1.31939 4.17689,-3.85586 4.2933,-6.78392 0.12277,-2.99861 -1.37089,-5.834946 -3.90242,-7.401279 -7.00617,-4.335637 -18.81294,-7.74347 -35.32153,0.723196 -10.41859,5.337523 -17.53516,15.561023 -23.81214,24.581553 -1.03259,1.4852 -2.05351,2.95628 -3.07411,4.3815 -0.99166,1.37936 -1.96004,2.78695 -2.93439,4.19806 -5.90341,8.55839 -11.48011,16.637 -21.18715,19.43805 -8.55768,2.48003 -17.89676,0.55386 -24.99606,-5.11528 -6.87175,-5.48922 -11.47445,-15.42344 -10.71033,-23.11752 0.49001,-4.90714 3.03353,-8.57603 7.55438,-10.90436 2.57247,-1.31939 4.17653,-3.85586 4.29332,-6.78392 0.12274,-2.99861 -1.37091,-5.834946 -3.90245,-7.401279 -6.98852,-4.328583 -18.80129,-7.736417 -35.31587,0.723196 -9.93986,5.090583 -17.36619,15.550443 -25.2236,26.624133 -5.72278,8.05392 -11.6318,16.383 -18.5039,22.32378 -1.24814,1.07245 -1.38255,2.96334 -0.3034,4.21217 1.0795,1.2453 2.96934,1.38289 4.21183,0.30339 7.41468,-6.40645 13.5396,-15.03892 19.46627,-23.38211 7.41997,-10.45986 14.43778,-20.34117 23.07132,-24.76147 14.0236,-7.207256 23.74794,-4.497922 29.44704,-0.97014 0.71191,0.4445 1.12006,1.22414 1.08516,2.08139 -0.0173,0.45155 -0.18063,1.26647 -1.05587,1.72155 -6.35246,3.26672 -10.07428,8.66775 -10.76254,15.62453 -0.96837,9.68728 4.46265,21.62175 12.91519,28.37391 8.62753,6.8827 19.96794,9.19692 30.38652,6.18773 11.75983,-3.3902 18.20579,-12.73881 24.44784,-21.78756 0.9511,-1.38289 1.90149,-2.75872 2.8702,-4.11339 1.03789,-1.44639 2.07645,-2.93511 3.12632,-4.445 6.16622,-8.86177 12.54196,-18.01989 21.63057,-22.67302 14.02363,-7.207256 23.74795,-4.497922 29.44742,-0.97014 0.71156,0.4445 1.11975,1.22414 1.08515,2.08139 -0.0176,0.45155 -0.18133,1.26647 -1.05622,1.72155 -6.35247,3.26672 -10.07427,8.66775 -10.76854,15.62453 -0.96838,9.68728 4.46864,21.62175 12.92119,28.37391 10.61685,8.4702 28.91649,11.37356 39.91822,1.31234 7.42032,-6.4135 13.54525,-15.03892 19.46627,-23.38917 7.41997,-10.45633 14.43214,-20.33411 23.06532,-24.75441 14.03702,-7.207256 23.75252,-4.497922 29.45341,-0.97014 0.71261,0.4445 1.11833,1.22414 1.08303,2.08139 -0.0176,0.45155 -0.17992,1.26647 -1.05481,1.72155 -6.35352,3.26672 -10.07533,8.66775 -10.76677,15.61747 -0.97014,9.68728 4.46616,21.62528 12.91872,28.38097 8.62894,6.8827 19.970749,9.19692 30.388276,6.18773 11.754556,-3.39373 18.210389,-12.74586 24.454556,-21.79461 0.94897,-1.38289 1.90147,-2.75873 2.861027,-4.10634 1.040693,-1.44639 2.07786,-2.93511 3.129137,-4.445 6.166556,-8.86177 12.54125,-18.01989 21.62528,-22.67302 14.033498,-7.207256 23.7525259,-4.497922 29.4534149,-0.97014 0.709083,0.4445 1.1183079,1.22414 1.0830279,2.08139 -0.017639,0.45155 -0.1799169,1.26647 -1.0548059,1.72155 -6.3535279,3.26672 -10.0753331,8.66775 -10.7703051,15.62453 -0.966611,9.68728 4.4696941,21.62175 12.9222492,28.37391 10.611556,8.4702 28.92072,11.37356 39.916808,1.31234 7.415382,-6.40645 13.539611,-15.03539 19.46275,-23.38211 7.425971,-10.45986 14.435662,-20.34117 23.071662,-24.76147 14.040563,-7.207256 23.752533,-4.497922 29.453423,-0.97014 0.70908,0.4445 1.11833,1.22414 1.08303,2.08139 -0.0176,0.45155 -0.17992,1.26647 -1.05481,1.72155 -6.35353,3.26672 -10.07533,8.66775 -10.77031,15.61747 -0.96661,9.68728 4.46264,21.62528 12.92225,28.38097 8.61484,6.87564 19.96723,9.18634 30.38123,6.18773 11.75808,-3.39373 18.21744,-12.74586 24.45808,-21.79461 0.9525,-1.38289 1.90147,-2.75873 2.86455,-4.10634 1.03717,-1.44639 2.07787,-2.93511 3.12562,-4.445 6.16655,-8.86177 12.54477,-18.01989 21.62527,-22.67302 14.05467,-7.207256 23.77017,-4.497922 29.44636,-0.97014 0.71967,0.4445 1.12186,1.22414 1.08656,2.08844 -0.0176,0.44803 -0.17639,1.26647 -1.05128,1.7145 -6.35,3.26672 -10.0718,8.66775 -10.76678,15.62453 -0.97014,9.68728 4.46617,21.62175 12.9152,28.37391 5.89844,4.71312 14.16755,7.69762 22.24264,7.69762 6.45583,0 12.79172,-1.91206 17.68122,-6.38528 7.41539,-6.40645 13.5396,-15.03539 19.45923,-23.38211 7.42595,-10.45986 14.43918,-20.34117 23.07166,-24.76147 14.03702,-7.207256 23.75252,-4.497922 29.45342,-0.97014 0.7126,0.4445 1.11824,1.22414 1.08654,2.08139 -0.0176,0.45155 -0.18344,1.26647 -1.05833,1.72155 -6.35,3.26672 -10.07179,8.66775 -10.76677,15.61747 -0.97015,9.68728 4.46264,21.62528 12.91873,28.38097 8.61835,6.8827 19.98133,9.19692 30.3812,6.18773 11.76163,-3.39373 18.21744,-12.74586 24.46163,-21.79461 0.94896,-1.38289 1.90146,-2.75873 2.86454,-4.10634 1.03717,-1.45344 2.0814,-2.94569 3.13267,-4.45558 6.1595,-8.85472 12.53421,-18.01283 21.61116,-22.66244 14.03705,-7.207256 23.75255,-4.497922 29.45342,-0.97014 0.71263,0.4445 1.11826,1.22414 1.08656,2.08139 -0.0176,0.45155 -0.18343,1.26647 -1.05833,1.72155 -6.35352,3.26672 -10.07533,8.66775 -10.76325,15.62453 -0.9666,9.68728 4.46265,21.62175 12.91519,28.37391 10.6186,8.47373 28.92425,11.3665 39.98383,1.25942" />
    </clipPath>
  </defs>
  <g
     inkscape:label="Layer 1"
     inkscape:groupmode="layer"
     id="layer1"
     transform="translate(702.25925,-50.589887)">
    <g
       id="g2654"
       transform="translate(-60.951095,-11.821561)">
      <path
         id="path20732"
         style="font-size:10.5833px;line-height:1.25;font-family:'Tahu!';-inkscape-font-specification:'Tahu!';letter-spacing:0px;fill:#8aa2a8;fill-opacity:1;stroke-width:4.41186"
         d="m 1024.7679,981.40231 c -1.454,0.05 -3.3104,1.35566 -5.575,3.9294 -4.5884,5.88234 -8.937,11.94628 -13.0547,18.18159 -4.0001,6.2354 -7.88528,12.7079 -11.6501,19.4139 -3.64711,6.7061 -7.29636,13.7051 -10.94351,20.9993 -3.52935,7.1767 -7.11542,14.6478 -10.76251,22.4127 -0.11709,0 -0.18198,0.05 -0.18198,0.1716 -0.11693,0.1168 -0.1716,0.2985 -0.1716,0.5336 l -0.70703,-0.707 c -0.94043,-1.0588 -2.12119,-1.7668 -3.53288,-2.1198 -1.29395,-0.4703 -2.58355,-0.8238 -3.87768,-1.0606 -4.58824,-0.3535 -8.88214,0.527 -12.88223,2.6455 -4.00012,2 -7.47663,4.7686 -10.41791,8.2982 -1.77968,2.0643 -3.32142,4.3207 -4.62724,6.7728 -3.59389,3.976 -7.22264,7.9585 -10.90044,11.9344 -4.35293,4.5884 -8.93747,9.3541 -13.76117,14.2954 -1.99991,2.0001 -3.58871,3.4075 -4.76509,4.2309 -1.17724,0.8237 -1.64916,0.3518 -1.41404,-1.4124 0.11711,-0.9404 0.40845,-2.2937 0.87877,-4.0584 0.4702,-1.7649 1.00545,-3.5894 1.59407,-5.4718 0.58865,-2 1.11559,-3.8793 1.58582,-5.6441 0.58857,-1.7647 0.99712,-3.1174 1.23224,-4.0585 0.58863,-2.0001 1.12389,-3.8794 1.59412,-5.644 0.4702,-1.8824 0.99712,-3.825 1.58576,-5.8252 0.70535,-2.1177 0.76872,-4.2329 0.18198,-6.3505 -0.47025,-2.1177 -1.2956,-3.8878 -2.47305,-5.2995 -1.05882,-1.529 -2.29341,-2.5282 -3.70528,-2.9987 -1.41233,-0.4703 -2.64645,-0.18 -3.70529,0.8787 -1.05887,1.7649 -1.88473,3.4714 -2.47303,5.1185 -1.99996,5.5295 -3.70663,11.7113 -5.11848,18.535 -1.52908,6.706 -2.11937,13.2879 -1.76636,19.7585 0,2.1177 0.59029,4.1237 1.76636,6.0061 1.05884,1.7647 2.59294,3.2901 4.59289,4.5842 0.58862,0.4702 1.35068,0.7704 2.29211,0.8871 1.05882,0.1166 2.11217,0.05 3.17104,-0.182 1.05883,-0.1169 2.06598,-0.3536 3.00729,-0.707 1.05882,-0.3536 1.87606,-0.762 2.46433,-1.2323 1.64749,-1.4123 3.18108,-2.9457 4.59289,-4.5928 1.17557,-1.0589 2.76505,-2.7655 4.76518,-5.1185 1.99996,-2.4705 4.05192,-5.1125 6.16963,-7.9362 1.36402,-1.7945 2.6703,-3.532 3.94656,-5.239 -0.15016,1.2806 -0.23346,2.5554 -0.23346,3.8258 0,2.2355 0.64531,4.06 1.93874,5.4718 1.17555,1.294 2.58376,2.4107 4.2309,3.352 2.94125,1.0588 5.82783,1.0038 8.65136,-0.1716 2.82353,-1.1773 5.46563,-2.8831 7.93619,-5.1185 2.58822,-2.2353 4.9482,-4.6499 7.06589,-7.2382 2.11769,-2.706 3.99695,-5.0026 5.64407,-6.8848 0.2353,-0.3535 0.40847,-0.707 0.52522,-1.0605 0.23531,-0.4703 0.4719,-0.8238 0.70704,-1.0606 -0.35366,2.1177 -0.76204,5.0041 -1.23226,8.6514 -0.35364,3.5294 -0.47023,7.1786 -0.35364,10.9434 0.11693,3.6472 0.70702,6.9971 1.76653,10.0559 1.17722,3.1766 3.11915,5.4731 5.82495,6.885 2.94126,1.5291 6.46396,1.4657 10.58165,-0.182 4.11764,-1.529 8.30217,-3.8175 12.53757,-6.8763 4.35311,-3.0588 8.46551,-6.3541 12.34791,-9.8836 1.0889,-0.9938 2.0138,-1.8169 3.0075,-2.7143 0.5169,4.2902 2.1599,7.4834 4.9374,9.5906 3.5296,2.5883 7.996,3.7135 13.408,3.3606 3.0588,-0.4702 6,-1.4774 8.8236,-3.0073 2.9412,-1.6474 5.7099,-3.5265 8.2982,-5.6442 2.7058,-2.2352 5.2298,-4.6499 7.5828,-7.2382 2.4707,-2.5882 4.7671,-5.0574 6.8848,-7.4104 1.5291,-1.7648 2.9455,-3.526 4.2396,-5.2909 0.3536,-0.4419 0.6853,-0.8887 1.0088,-1.344 2.1334,3.0835 4.269,6.1215 6.4025,9.1081 -3.4119,2.8236 -6.7071,5.8197 -9.8837,8.9962 -3.0588,3.0588 -5.8821,6.826 -8.4704,11.2966 -1.0589,1.7647 -1.9394,3.7075 -2.6453,5.8252 -0.9404,3.4118 -1.2406,6.8249 -0.8871,10.2368 0.3537,3.5295 1.8869,6.7614 4.5927,9.7027 1.0589,1.2939 2.3483,2.12 3.8777,2.473 1.5291,0.4702 3.1181,0.707 4.7652,0.707 2.9412,0 5.6464,-0.5903 8.1171,-1.7665 2.4707,-1.1772 4.7673,-2.7652 6.8848,-4.7651 2.1177,-2.0001 3.9971,-4.2333 5.6442,-6.704 1.7647,-2.4707 3.4714,-5.0579 5.1184,-7.7639 1.1772,-2.8235 2.1205,-5.3561 2.8263,-7.5915 0.7053,-2.1177 1.1155,-4.2329 1.2323,-6.3506 0.2353,-2.1177 0.067,-4.2962 -0.5253,-6.5316 -0.5886,-2.353 -1.5874,-5.113 -2.9988,-8.2895 0.3537,-0.2352 0.8254,-0.4719 1.4141,-0.707 0.7053,-0.2352 1.1688,-0.4719 1.404,-0.707 2.2352,-1.4124 4.8858,-2.8278 7.9446,-4.2396 3.059,-1.5291 5.5916,-2.8819 7.5916,-4.0585 0.2353,-0.1167 0.762,-0.4085 1.5857,-0.8787 0.8238,-0.4703 1.5858,-1.0055 2.2921,-1.5941 0.8238,-0.5887 1.4691,-1.1689 1.9388,-1.7579 0.4702,-0.5886 0.5336,-1.0605 0.1818,-1.4123 -0.3537,-0.5886 -0.9438,-0.8871 -1.7666,-0.8871 -1.2939,0 -3.1733,0.3535 -5.644,1.0605 -2.353,0.5886 -4.8855,1.3506 -7.5915,2.2921 -2.5883,0.9404 -5.1121,1.8851 -7.5828,2.8264 -2.353,0.9404 -4.1229,1.7038 -5.2995,2.2921 -0.9404,0.3535 -1.5307,0.5336 -1.7665,0.5336 -0.2352,-0.1168 -0.707,-0.5353 -1.414,-1.2406 l -2.2921,-2.2925 c -0.8237,-1.0588 -1.7041,-2.1122 -2.6453,-3.171 -0.8237,-1.0589 -1.7041,-2.0662 -2.6454,-3.0073 -0.8238,-1.0588 -1.4691,-1.9396 -1.9388,-2.6454 -1.0588,-2 -1.4757,-3.9975 -1.2406,-5.9974 0.3537,-2 1.0055,-3.7614 1.9475,-5.2908 1.0588,-1.529 2.2302,-2.7094 3.5243,-3.533 1.294,-0.9405 2.4107,-1.2956 3.352,-1.0605 0.1171,0.4702 0.4167,1.2973 0.8871,2.473 0.4702,1.1772 0.7603,2.0026 0.8787,2.4732 0.5887,2.353 1.4691,4.9402 2.6453,7.7638 1.294,2.8235 3.2369,4.7027 5.8252,5.644 1.4123,0.5886 2.2924,0.4702 2.6452,-0.3535 0.3537,-0.8237 0.4168,-1.8222 0.182,-2.9986 -0.3536,-1.294 -0.707,-2.4742 -1.0605,-3.5331 -0.3536,-1.1772 -0.707,-2.4657 -1.0605,-3.8775 -0.3536,-1.5291 -0.6437,-3.2994 -0.8788,-5.2994 -0.1171,-2.1177 -0.182,-4.823 -0.182,-8.1171 0,-0.8237 -0.3536,-1.469 -1.0605,-1.9389 -0.7053,-0.4702 -1.3506,-0.8254 -1.9387,-1.0605 -0.5887,-0.2352 -1.2957,-0.4086 -2.1199,-0.5253 -0.7054,-0.2351 -1.414,-0.5353 -2.1197,-0.8871 -1.6475,-0.7053 -3.2357,-0.7603 -4.7651,-0.1716 -1.4124,0.5886 -2.8192,1.3506 -4.2309,2.2921 -3.4118,2.4707 -6.4711,5.766 -9.1771,9.8836 -2.5883,4.0001 -3.8863,8.294 -3.8863,12.8824 0,2.782 0.5137,5.3986 1.5341,7.8585 -0.6536,0.747 -1.3906,1.5374 -2.2319,2.3783 -1.1756,1.0589 -2.6471,2.4115 -4.4118,4.0586 -1.7646,1.6475 -3.5894,3.3537 -5.4718,5.1185 -1.8822,1.7647 -3.7701,3.4714 -5.6526,5.1183 -1.8823,1.5291 -3.589,2.8189 -5.1184,3.8777 -1.294,0.7054 -3.0008,1.5325 -5.1185,2.4731 -2.1177,0.9404 -4.2329,1.5307 -6.3506,1.7665 -2.0001,0.1166 -3.6434,-0.2367 -4.9375,-1.0605 -1.294,-0.9405 -1.7662,-2.9473 -1.414,-6.0061 0,-1.1772 0.6453,-2.5838 1.9387,-4.2309 1.2939,-1.7648 2.8282,-3.4713 4.5929,-5.1185 1.7647,-1.6474 3.5893,-3.2357 5.4716,-4.7651 1.8825,-1.5291 3.3532,-2.764 4.412,-3.7053 2.1177,-1.9999 3.5882,-3.8794 4.4118,-5.644 0.9421,-1.8825 1.6408,-4.1244 2.1112,-6.7126 0.5886,-2.7058 0.18,-4.9939 -1.2323,-6.8764 -1.2939,-1.8822 -3.1733,-3.117 -5.644,-3.7051 -4.8237,0.1168 -9.0629,1.4707 -12.71,4.0585 -3.5293,2.5882 -6.4706,5.9382 -8.8236,10.056 -2.3531,3.9999 -4.1144,8.4119 -5.2909,13.2356 -0.9021,3.6999 -1.3924,7.296 -1.4657,10.7882 -0.6703,0.5736 -1.3507,1.1556 -2.068,1.7407 -3.059,2.5882 -6.1181,4.8849 -9.1771,6.885 -3.05882,1.9999 -5.93671,3.5252 -8.64271,4.584 -2.70595,0.9405 -4.76644,1.0589 -6.17832,0.3537 -0.94045,-0.4702 -1.58574,-1.5875 -1.93875,-3.352 -0.35365,-1.7647 -0.53362,-3.7073 -0.53362,-5.825 0.11694,-2.1177 0.29839,-4.115 0.53362,-5.9974 0.35363,-1.9999 0.64365,-3.5339 0.87876,-4.5927 0.23486,-0.9404 0.4719,-1.7587 0.70698,-2.4645 0.35363,-0.8238 0.82539,-1.5858 1.41401,-2.2921 4.47068,-7.1767 8.88264,-14.3571 13.23563,-21.5336 4.3531,-7.1766 8.4109,-14.3571 12.1757,-21.5338 3.7648,-7.2942 7.1148,-14.584 10.0558,-21.8782 3.0591,-7.2944 5.4735,-14.5927 7.2384,-21.88693 0.2353,-1.76468 0.2901,-4.05279 0.1716,-6.87633 -0.1169,-2.82353 -0.5903,-5.2382 -1.414,-7.23817 -0.7054,-2.11768 -1.8773,-3.35228 -3.5242,-3.70528 -0.1917,-0.05 -0.3951,-0.0667 -0.6037,-0.05 z m 316.5767,7.82412 c -3.0002,0.0167 -6.2681,0.61029 -9.7975,1.75785 -4.706,1.41235 -9.2359,3.5272 -13.5888,6.35073 -4.3532,2.70599 -8.2297,5.88319 -11.6415,9.53029 -3.2941,3.6471 -5.4181,7.4144 -6.3593,11.2968 -0.5886,2 -0.9337,4.1153 -1.0521,6.3506 0,2.2354 0.2901,4.4139 0.8787,6.5316 0.5886,2.1177 1.5324,4.1784 2.8262,6.1783 1.294,1.8824 3.0555,3.5257 5.2909,4.9376 2,1.2939 4.4693,2.4107 7.4106,3.3519 2.9411,0.9405 6.0004,1.8851 9.1769,2.8264 3.2941,0.8237 6.5347,1.7675 9.7113,2.8264 3.1765,0.9404 5.9997,2.1125 8.4704,3.5242 2.5882,1.2939 4.5855,2.8827 5.9974,4.7651 1.4123,1.7649 1.9384,3.9434 1.5858,6.5317 -0.2354,2.4707 -1.5241,5.5298 -3.8778,9.1769 -2.3529,3.5296 -5.3574,7.2335 -9.0045,11.1159 -3.6472,3.8824 -7.705,7.7044 -12.1757,11.469 -4.3531,3.6473 -8.6469,6.8245 -12.8822,9.5303 -4.2354,2.5885 -8.1753,4.4677 -11.8226,5.6443 -3.6471,1.0588 -6.4703,0.9487 -8.4703,-0.3454 -2.4706,-1.5291 -3.5327,-4.1253 -3.1796,-7.7726 0.4702,-3.6471 1.8865,-7.6415 4.2395,-11.9946 2.3529,-4.4707 5.4121,-8.8825 9.1769,-13.2356 3.7649,-4.4707 7.8228,-8.2378 12.1758,-11.2968 0.4702,-0.3535 1.4056,-1.0605 2.8176,-2.1197 1.5291,-1.1772 2.8274,-2.2931 3.8863,-3.3519 1.0588,-1.0589 1.5857,-1.8848 1.5857,-2.4731 0,-0.7053 -1.1172,-0.8154 -3.3519,-0.3451 -2.353,0.3535 -4.7043,0.8804 -7.0573,1.5857 -2.353,0.5886 -4.6495,1.4691 -6.885,2.6453 -3.7646,1.7649 -7.3506,4.0615 -10.7624,6.885 -3.4118,2.8235 -6.353,6.0007 -8.8237,9.5303 -2.4707,3.5294 -4.2319,7.4061 -5.2907,11.6414 -1.0589,4.2354 -1.1223,8.7106 -0.182,13.4166 1.1755,5.2942 3.5277,9.4067 7.0572,12.3479 3.5294,2.9413 8.1226,4.8292 13.7697,5.6527 5.5295,0.7054 11.412,-0.1169 17.6475,-2.473 6.3529,-2.353 12.4082,-5.7029 18.173,-10.056 5.7648,-4.353 10.8214,-9.3549 15.1743,-15.0019 4.4707,-5.7648 7.6481,-11.5927 9.5304,-17.4752 1.6476,-4.7059 1.9464,-9.4632 0.8872,-14.2869 -0.9405,-4.8235 -3.2926,-9.2354 -7.0573,-13.2356 -2.4707,-2.5882 -5.1213,-4.7668 -7.9448,-6.5314 -2.8235,-1.8825 -5.7648,-3.5891 -8.8238,-5.1185 -2.9413,-1.6475 -6.0004,-3.1811 -9.1769,-4.5929 -3.1766,-1.5291 -6.3538,-3.2908 -9.5303,-5.2907 -0.7054,-0.4703 -1.5324,-0.9972 -2.473,-1.5858 -0.8238,-0.7053 -1.5858,-1.4774 -2.2921,-2.3008 -0.5887,-0.9404 -1.0606,-1.9397 -1.4141,-2.9986 -0.2353,-1.0588 -0.05,-2.1755 0.5336,-3.3519 0.4702,-1.8824 1.8232,-3.8797 4.0585,-5.9974 2.353,-2.2355 4.9951,-4.296 7.9362,-6.1784 3.0589,-1.9999 6.1182,-3.7613 9.1771,-5.2907 3.1765,-1.5291 5.8818,-2.65477 8.117,-3.36062 1.294,-0.35351 2.3562,-0.46188 3.1798,-0.34517 0.9421,0.11673 1.2956,0.81706 1.0605,2.11119 -0.2353,1.5291 -0.8254,3.5899 -1.7665,6.1783 -0.9405,2.5883 -2.1125,5.4115 -3.5244,8.4704 -1.4123,2.9411 -2.9456,5.9458 -4.5927,9.0047 -1.5291,3.0589 -3.0002,5.8189 -4.412,8.2894 -0.2353,0.4702 -0.1166,0.8237 0.3536,1.0605 0.5887,0.2351 1.3507,0.2985 2.2921,0.1801 0.9422,-0.1168 1.94,-0.3535 2.9988,-0.707 1.0589,-0.3535 2.066,-0.8888 3.0073,-1.5941 2,-1.294 4.1153,-3.1187 6.3506,-5.4717 2.2354,-2.4707 4.178,-5.1126 5.8251,-7.9363 1.7647,-2.9411 3.054,-6.0004 3.8776,-9.1769 0.8237,-3.1766 0.8237,-6.181 0,-9.00474 -1.1756,-3.41182 -2.9378,-5.81765 -5.2909,-7.2295 -2.353,-1.41235 -5.2942,-2.4105 -8.8236,-2.99878 -0.9405,-0.11673 -1.9126,-0.18009 -2.9126,-0.17175 z m -435.42105,0.6203 c -4.25187,-0.005 -8.50041,0.0667 -12.73581,0.25013 -11.17657,0.35351 -21.76171,1.41569 -31.76185,3.17971 -10.00016,1.76485 -18.41526,4.29741 -25.23907,7.59153 -3.17633,1.6474 -4.76513,4.1163 -4.76513,7.4106 0,1.2939 0.4719,2.4655 1.41232,3.5243 0.94049,1.0589 2.05784,2.066 3.35197,3.0073 1.29398,0.8238 2.64679,1.6408 4.05865,2.4644 1.52907,0.7053 2.89073,1.359 4.06713,1.9474 2.23544,1.1773 4.58673,2.1119 7.05722,2.8177 2.58845,0.5886 5.2304,0.8871 7.93622,0.8871 2.00013,0 2.82604,-0.4719 2.473,-1.4123 -0.23531,-1.0589 -1.06216,-2.2388 -2.473,-3.5329 -1.29401,-1.294 -2.70149,-2.5836 -4.23088,-3.8777 -1.5291,-1.294 -2.52807,-2.2379 -2.99864,-2.8262 1.8824,-0.5886 4.64226,-1.1789 8.28953,-1.7665 3.76465,-0.7054 7.53194,-1.2323 11.29664,-1.5858 3.88249,-0.4702 7.41373,-0.7621 10.59024,-0.8788 3.17658,-0.2351 5.17384,-0.1801 5.99726,0.1718 -0.11692,0.2351 -0.47189,0.6436 -1.0605,1.2322 -4.11767,5.7648 -7.93955,12.2373 -11.46906,19.4139 -3.4118,7.0589 -6.52584,14.412 -9.34934,22.0592 -2.82356,7.6472 -5.23821,15.3544 -7.23816,23.1192 -2.00013,7.6472 -3.53409,14.8276 -4.59289,21.5337 -0.23531,1.1756 -0.4719,3.2918 -0.70704,6.3506 -0.23529,2.9413 -0.2901,6.0551 -0.17161,9.3494 0.11693,3.2943 0.47191,6.2987 1.06053,9.0047 0.58863,2.8235 1.70495,4.5849 3.35196,5.2907 1.1772,0.5886 2.12049,0.1169 2.82636,-1.4123 0.47022,-1.7647 0.87874,-3.2901 1.23224,-4.5843 0.47024,-1.2939 0.87877,-2.474 1.23227,-3.5328 0.35365,-1.0589 0.65201,-2.1122 0.88713,-3.171 0.35364,-1.0589 0.70696,-2.2388 1.06047,-3.5329 5.64727,-19.1768 11.23046,-36.2344 16.75996,-51.1758 5.52953,-15.0591 11.71134,-28.9395 18.53499,-41.6457 0.58856,-0.8237 0.76035,-1.6491 0.52521,-2.473 -0.11657,-0.9405 -0.40843,-1.8219 -0.87873,-2.6453 -0.47024,-0.8237 -0.94214,-1.5941 -1.41403,-2.3008 -0.47023,-0.7053 -0.58862,-1.3506 -0.35366,-1.9387 10.11776,-0.5887 20.34885,-0.8788 30.70205,-0.8788 h 31.2363 4.94604 c 1.64743,0 3.29042,-0.1167 4.93754,-0.3535 1.64748,-0.2351 2.59095,-0.652 2.82638,-1.2406 0.35365,-0.5886 0.17161,-1.2323 -0.5336,-1.9388 -0.58862,-0.8237 -1.52408,-1.5857 -2.81783,-2.29208 -1.29401,-0.82373 -2.64667,-1.58577 -4.05848,-2.29211 -1.41239,-0.70534 -2.76454,-1.29563 -4.05865,-1.76652 -1.17557,-0.47023 -2.06565,-0.77038 -2.65391,-0.8871 -9.64721,-1.76469 -20.23231,-3.05398 -31.76189,-3.87754 -7.13263,-0.51525 -14.24042,-0.77538 -21.32697,-0.78372 z M 1023.958,1005.633 c -0.7053,4.706 -2.4127,10.2345 -5.1185,16.5876 -2.706,6.2353 -5.8199,12.7078 -9.3493,19.4138 -3.5296,6.5884 -7.1787,13.0522 -10.94349,19.4053 -3.64707,6.353 -6.82446,11.9996 -9.53027,16.9408 4.35293,-12.8237 9.40953,-25.2334 15.17436,-37.2337 5.7647,-12.0001 12.3553,-23.7017 19.7672,-35.1138 z m 215.2503,1.3524 c -1.2356,0.067 -2.3383,0.4985 -3.3089,1.2922 -1.294,0.9405 -2.4656,2.0579 -3.5244,3.352 -4.8235,6.9414 -9.3533,14.7031 -13.5887,23.2914 -4.1178,8.5885 -7.885,17.7116 -11.2968,27.3588 -1.5991,4.4654 -3.0887,8.9942 -4.4809,13.5889 -1.2122,0.3218 -2.487,0.7337 -3.8173,1.2322 -1.7647,0.5886 -3.4627,1.1156 -5.1098,1.5858 -1.4124,0.3535 -2.9456,0.8254 -4.5928,1.4123 -1.6474,0.5887 -3.1723,0.9422 -4.5842,1.0606 0.117,-0.7054 0.2902,-1.7679 0.5253,-3.1798 0.2353,-1.4123 0.2984,-2.937 0.182,-4.5842 -0.1171,-1.7646 -0.4719,-3.526 -1.0605,-5.2907 -0.5887,-1.8822 -1.5958,-3.5889 -3.0073,-5.1183 -1.6475,-2.0001 -3.5811,-3.3528 -5.8163,-4.0586 -2.1177,-0.7054 -4.4777,-0.8237 -7.066,-0.3535 -4.1176,0.4702 -7.7584,2.2319 -10.9349,5.2909 -3.0588,2.941 -5.5914,6.1731 -7.5913,9.7025 -0.7054,1.1772 -1.2323,2.4745 -1.5858,3.8862 -0.3537,1.4123 -0.7071,2.7645 -1.0605,4.0586 -0.2354,0.3535 -0.4719,0.5886 -0.707,0.707 -0.3537,0.1168 -0.6437,0.2351 -0.8788,0.3535 -0.2353,0.1168 -0.4719,0.3536 -0.707,0.707 -0.2353,0.2352 -0.4167,0.7621 -0.5336,1.5858 -0.4702,1.7647 -0.8788,4.0613 -1.2323,6.885 -0.3536,2.7058 -0.4167,5.5292 -0.18,8.4703 0.117,2.8237 0.6537,5.4743 1.5941,7.9448 0.8238,2.4707 2.1129,4.2868 3.8777,5.4631 2.353,1.8825 5.1762,2.8264 8.4703,2.8264 2.3531,0 4.7676,-1.0622 7.2383,-3.1797 2.5883,-2.1177 5.0028,-4.6416 7.2382,-7.5828 2.353,-2.9413 4.4683,-5.9457 6.3506,-9.0047 1.8824,-3.1765 3.3531,-5.7004 4.412,-7.5828 2.4705,-1.294 5.0577,-2.2928 7.7637,-2.9988 2.8237,-0.7054 5.6469,-1.7132 8.4704,-3.0073 0.5887,-0.3535 1.414,-0.9338 2.473,-1.7577 0.1171,-0.083 0.222,-0.1669 0.3367,-0.2501 -0.9955,3.5153 -1.9328,7.0696 -2.8092,10.659 -2.5883,10.1179 -4.5856,20.113 -5.9974,29.9955 -0.4703,5.2942 -0.707,10.65 -0.707,16.0619 -0.1171,5.4118 1.1722,10.7677 3.8775,16.062 1.0589,1.9999 2.5295,3.1713 4.412,3.5244 1.7647,0.3536 3.6526,0.4702 5.6525,0.3536 2.5885,-0.8238 4.7583,-2.5302 6.523,-5.1185 1.8824,-2.5883 3.3532,-5.7022 4.412,-9.3493 1.1772,-3.5296 2.0025,-7.4695 2.473,-11.8224 0.4702,-4.2354 0.7071,-8.5927 0.7071,-13.0634 0.1165,-4.3529 -0.05,-8.5835 -0.5253,-12.7013 -0.3537,-4.1176 -0.8254,-7.7669 -1.4141,-10.9434 5.8824,1.2939 11.4658,1.5307 16.7598,0.707 5.412,-0.8238 10.8311,-2.7028 16.2429,-5.6441 0.2353,-0.1167 0.4084,-0.4169 0.5252,-0.8871 0.1171,-0.5886 -0.4084,-0.8788 -1.5857,-0.8788 -6.0001,0.4703 -11.8279,0.8238 -17.475,1.0606 -5.6472,0.1167 -11.4116,-0.5903 -17.2942,-2.1197 0.1171,-0.3535 0.182,-0.6437 0.182,-0.8788 5.7648,-7.6472 11.0574,-15.4723 15.881,-23.4725 4.8235,-8.1178 8.6455,-17.2955 11.4691,-27.531 0.9421,-3.1765 1.4673,-6.4169 1.5857,-9.7112 0.2354,-3.2942 0.3537,-6.4628 0.3537,-9.5218 v -2.8262 c 0.5886,-1.529 0.4153,-2.882 -0.5253,-4.0586 -0.8237,-1.2939 -2.0581,-1.9388 -3.7053,-1.9388 -0.442,-0.067 -0.8721,-0.083 -1.2839,-0.067 z m 2.5161,12.4083 c -0.7054,4.3529 -1.8226,9.0642 -3.352,14.1231 -1.5291,5.0588 -3.4087,10.1701 -5.644,15.3466 -2.1177,5.059 -4.5323,10.0062 -7.2382,14.8299 -2.706,4.7059 -5.5292,8.8184 -8.4704,12.3479 0.8237,-2.5882 2.1762,-6.4734 4.0586,-11.6501 1.8822,-5.1765 3.9976,-10.6418 6.3506,-16.4066 2.3529,-5.7648 4.7676,-11.2933 7.2381,-16.5875 2.5883,-5.2942 4.9396,-9.2973 7.0573,-12.0033 z m -325.71042,18.0437 c -1.03719,0 -2.17706,0.3952 -3.41234,1.1889 -1.52907,0.9405 -2.52807,2.1759 -2.99864,3.7053 -0.94042,2.5882 -1.17722,5.1842 -0.70701,7.7724 0.47024,2.5885 1.46908,5.0576 2.99882,7.4106 0.35364,0.8238 0.94208,0.8238 1.76633,0 2.23541,-2.2352 4.17802,-4.8226 5.82502,-7.7637 1.76482,-2.9413 2.23672,-6.0006 1.41234,-9.1772 -0.23533,-0.7053 -0.77039,-1.2956 -1.59415,-1.7663 -0.8237,-0.5886 -1.58575,-0.9972 -2.29207,-1.2323 -0.32326,-0.083 -0.65364,-0.1334 -0.99881,-0.1334 z m 527.84582,18.6125 c -1.2222,-0.033 -2.4253,0.1168 -3.6019,0.4052 -5.6471,1.1773 -10.4677,3.8819 -14.4678,8.1171 -3.9999,4.2354 -7.2952,9.0561 -9.8835,14.4679 -1.0555,2.2747 -2.0033,4.5798 -2.835,6.9108 -0.7971,0.732 -1.6575,1.5341 -2.6368,2.4472 -1.7647,1.6474 -3.5894,3.3536 -5.4716,5.1185 -1.8824,1.7646 -3.7618,3.4713 -5.6441,5.1184 -1.8824,1.5291 -3.5891,2.8188 -5.1185,3.8776 -1.2939,0.7053 -3.0008,1.5324 -5.1185,2.473 -2.1176,0.9405 -4.2328,1.5308 -6.3505,1.7665 -2.0001,0.117 -3.6521,-0.2366 -4.9462,-1.0605 -1.294,-0.9404 -1.766,-2.9472 -1.4124,-6.006 0,-1.1773 0.6536,-2.5838 1.9475,-4.2309 1.2939,-1.7647 2.8193,-3.4714 4.5841,-5.1185 1.7647,-1.6475 3.5893,-3.2358 5.4717,-4.7651 1.8824,-1.5291 3.3531,-2.7641 4.412,-3.7053 2.1177,-2 3.5882,-3.8793 4.4118,-5.6441 0.9404,-1.8824 1.6491,-4.1243 2.1197,-6.7126 0.5886,-2.7058 0.1716,-4.9939 -1.2406,-6.8763 -1.294,-1.8823 -3.1734,-3.1168 -5.6439,-3.7051 -4.8237,0.1167 -9.0629,1.4707 -12.71,4.0584 -3.5295,2.5883 -6.4708,5.9382 -8.8238,10.056 -2.3529,4 -4.1143,8.412 -5.2907,13.2356 -1.1772,4.8235 -1.6491,9.4714 -1.4123,13.9421 0,5.8825 1.7065,10.113 5.1183,12.7013 3.5295,2.5883 8.0046,3.7137 13.4166,3.3607 3.0588,-0.4703 6.0001,-1.4774 8.8236,-3.0073 2.9413,-1.6475 5.7013,-3.5264 8.2895,-5.6441 2.706,-2.2354 5.2386,-4.6499 7.5915,-7.2384 0.7788,-0.8153 1.5308,-1.6107 2.275,-2.404 -0.05,0.2735 -0.1166,0.547 -0.1667,0.8188 -0.1171,1.1772 -0.05,2.7651 0.182,4.7651 0.2353,2 0.8804,3.5339 1.9387,4.5928 1.0589,1.0588 2.1754,1.9942 3.352,2.8177 1.1756,0.7053 2.4744,1.1772 3.8862,1.4123 1.8824,0.3537 3.6436,0.3537 5.2907,0 1.7647,-0.4702 3.4167,-1.0606 4.9463,-1.7663 1.529,-0.8238 2.9367,-1.7042 4.2308,-2.6455 1.294,-1.0588 2.4741,-2.0028 3.5329,-2.8264 0.3537,1.8825 0.9972,3.6523 1.9388,5.2994 0.9405,1.6475 2.1759,2.9998 3.7053,4.0587 1.5291,1.0588 3.2361,1.7035 5.1185,1.9388 1.8824,0.3536 3.9976,0.1171 6.3505,-0.7071 3.7649,-1.4123 7.2414,-3.291 10.4179,-5.644 3.2943,-2.4706 6.2356,-5.2392 8.8238,-8.2981 2.706,-3.1765 5.1118,-6.5898 7.2295,-10.2369 2.1177,-3.6471 3.9424,-7.3511 5.4718,-11.1159 0,-0.4702 -0.05,-0.8787 -0.1716,-1.2323 0,-0.4702 -0.3002,-0.8253 -0.8871,-1.0605 -0.3537,-0.2351 -0.8154,-0.1167 -1.404,0.3535 -0.4703,0.3535 -0.8871,0.707 -1.2406,1.0606 -1.4124,1.1772 -3.1731,3.0011 -5.2907,5.4718 -2.1177,2.4707 -4.4144,5.0579 -6.8851,7.7637 -2.3529,2.706 -4.7674,5.2933 -7.2381,7.764 -2.4707,2.3529 -4.8219,3.9962 -7.0573,4.9375 -2.8235,1.0589 -4.7661,1.1222 -5.8249,0.182 -1.0589,-0.9405 -1.4124,-2.9473 -1.0606,-6.0061 0.3537,-2 1.1789,-4.2881 2.473,-6.8763 1.4124,-2.5883 2.5285,-4.8215 3.352,-6.7039 0.7054,-1.5291 0.8238,-3.0002 0.3537,-4.412 -0.3537,-1.5291 -1.1156,-2.7725 -2.2922,-3.7138 -1.0588,-1.0588 -2.3568,-1.6408 -3.8862,-1.7578 -1.529,-0.1168 -3.0548,0.4085 -4.5842,1.5857 -0.1169,0.1168 -0.9437,1.1789 -2.473,3.1797 -1.4124,1.8824 -3.1185,4.1157 -5.1185,6.7039 -1.9999,2.4707 -4.1153,4.9946 -6.3506,7.5829 -2.2354,2.5882 -4.2327,4.6489 -5.9974,6.1783 -1.7648,1.4124 -3.0628,2.065 -3.8862,1.9475 -0.8237,-0.2353 -0.8787,-1.8873 -0.1716,-4.9461 0.4703,-1.8824 1.6425,-4.6424 3.5242,-8.2895 1.8825,-3.7648 4.1244,-7.4773 6.7126,-11.1244 2.5885,-3.7648 5.2936,-6.9967 8.1173,-9.7027 2.8235,-2.8235 5.3474,-4.2396 7.5828,-4.2396 1.0589,0 1.8848,0.2985 2.4731,0.8871 0.7053,0.4703 1.2322,1.0606 1.5857,1.7666 0.3537,0.5886 0.5886,1.2322 0.707,1.9387 0.2353,0.5886 0.4167,1.0605 0.5336,1.4124 0.3537,0.7053 0.707,1.0605 1.0605,1.0605 0.3537,-0.1168 0.6987,-0.4169 1.0522,-0.8871 0.4702,-0.4702 0.8254,-1.0605 1.0605,-1.7665 0.3537,-0.7054 0.652,-1.4057 0.8871,-2.111 0.4703,-1.8825 0.2901,-3.5891 -0.5336,-5.1185 -0.8237,-1.6475 -1.995,-2.9998 -3.5243,-4.0586 -1.5291,-1.0589 -3.3542,-1.7121 -5.4718,-1.9475 -0.7504,-0.1335 -1.4891,-0.2068 -2.2231,-0.2234 z m -273.3282,10.2628 c 0.3168,-0.016 0.632,0 0.9571,0.033 1.294,0.1168 2.3562,0.6436 3.1796,1.5858 1.6474,1.6474 2.4645,3.8256 2.4645,6.5315 0.1171,2.7059 -0.2901,5.1753 -1.2323,7.4105 0,0.2352 -0.1166,0.4719 -0.3536,0.7071 -0.2354,0.2351 -0.4719,0.3535 -0.7071,0.3535 -0.5886,0 -1.7048,0.1167 -3.3519,0.3535 -1.5291,0.2351 -3.1727,0.4085 -4.9376,0.5252 -1.6474,0 -3.181,-0.05 -4.5927,-0.1716 -1.294,-0.1167 -1.9389,-0.4719 -1.9389,-1.0605 0.1171,-1.2939 -0.4085,-2.474 -1.5858,-3.5329 -0.2353,-0.2351 -0.3537,-0.6436 -0.3537,-1.2322 1.294,-2 2.6468,-3.9428 4.0587,-5.825 1.4123,-1.8824 3.291,-3.5257 5.644,-4.9376 0.8821,-0.4418 1.8002,-0.6886 2.7489,-0.732 z m -129.8052,0.732 c -0.9421,2.8236 -2.4751,5.2296 -4.5928,7.2295 -2,1.8824 -4.2966,3.7704 -6.8848,5.6528 0.8236,-3.6471 2.1215,-6.4158 3.8861,-8.2982 1.8824,-1.8823 4.415,-3.4077 7.5915,-4.5841 z m 351.7077,0 c -0.9404,2.8236 -2.475,5.2296 -4.5927,7.2295 -2.0001,1.8824 -4.2881,3.7704 -6.8763,5.6528 0.8237,-3.6471 2.1128,-6.4158 3.8775,-8.2982 1.8824,-1.8823 4.415,-3.4077 7.5915,-4.5841 z m -427.04526,7.4881 c 1.53906,-0.01 3.00481,0.3202 4.39461,0.9822 -4.35306,3.0588 -8.59213,6.1727 -12.70996,9.3492 -4.00013,3.059 -7.99473,6.1815 -11.99464,9.358 l -0.35364,-0.5336 c 0,-2.1177 0.81703,-4.469 2.46435,-7.0572 1.76487,-2.706 3.88873,-5.0571 6.35923,-7.0573 2.58844,-2.1177 5.29357,-3.5882 8.11728,-4.4118 1.2873,-0.4118 2.52571,-0.622 3.72245,-0.6286 z m 192.33786,17.0355 c 2.3532,0.4702 4.877,0.707 7.5831,0.707 2.7058,0 5.2385,-0.1168 7.5914,-0.3535 -0.3536,1.2939 -1.0605,2.9461 -2.1198,4.9462 -0.9405,1.8822 -2.1126,3.7616 -3.5242,5.6441 -1.294,1.8824 -2.7102,3.5888 -4.2396,5.1183 -1.4123,1.4123 -2.7011,2.2377 -3.8777,2.4732 -0.5886,-0.9405 -1.0605,-2.2393 -1.4123,-3.8862 -0.3537,-1.6475 -0.5887,-3.3538 -0.7071,-5.1185 -0.1169,-1.8824 -0.1169,-3.6438 0,-5.2909 0.1166,-1.7647 0.3537,-3.1807 0.7071,-4.2396 z m 52.0549,6.1783 c 0.5886,0.8237 1.0055,2.4755 1.2406,4.9462 0.3536,2.353 0.4702,5.113 0.3536,8.2893 0,3.0591 -0.182,6.2363 -0.5335,9.5303 -0.2353,3.4118 -0.6437,6.4712 -1.2323,9.1771 -0.5887,2.706 -1.3507,4.8212 -2.2921,6.3506 -0.8238,1.6475 -1.7676,2.3005 -2.8262,1.9475 -0.2353,-7.059 0.2367,-13.8854 1.4123,-20.4738 1.294,-6.4706 2.5836,-13.0611 3.8777,-19.7672 z m -129.5294,5.6527 c 1.0589,2.0001 1.1773,4.406 0.3537,7.2297 -0.7054,2.8235 -2.0038,5.6467 -3.8862,8.4704 -1.8823,2.9411 -4.0523,5.5917 -6.523,7.9447 -2.4706,2.4707 -4.8852,4.2321 -7.2382,5.2909 -0.5886,-2.0002 -0.2334,-4.4062 1.0605,-7.2297 1.1773,-2.706 2.7018,-5.4745 4.5842,-8.298 2.0002,-2.8237 4.124,-5.411 6.3593,-7.7639 2.2354,-2.4707 3.9968,-4.35 5.2909,-5.6441 z" />
      <path
         id="path21897"
         style="fill:#8aa2a8;fill-opacity:1;fill-rule:nonzero;stroke:none;stroke-width:0.0214105"
         d="m 701.79313,1205.4193 c -1.67217,0 -3.02514,0.4987 -3.02514,1.1146 0,0.6159 1.35297,1.1137 3.02514,1.1137 10.84085,0 20.12836,1.4812 29.95322,3.0509 7.7036,1.2293 15.66761,2.5 24.46414,3.0055 16.32971,0.9369 31.34754,-0.7597 45.88092,-2.4009 9.8485,-1.111 20.03377,-2.2624 30.34337,-2.5326 11.82756,-0.3223 22.8337,1.0417 34.4842,2.4789 7.73922,0.9525 15.73834,1.9389 24.01557,2.3885 13.93684,0.7575 26.66224,-0.8835 38.94492,-2.4753 8.52522,-1.1032 17.34529,-2.2469 26.46142,-2.5575 11.77431,-0.4197 21.2802,0.9295 31.37742,2.3394 5.31635,0.742 10.81659,1.5084 16.84909,2.0541 22.5037,2.0388 43.5219,-0.5313 62.0815,-2.7988 21.6111,-2.6456 39.0282,-1.0201 59.1612,0.8641 6.9356,0.6471 14.1072,1.316 21.7589,1.8319 15.6386,1.0434 30.2543,-0.7131 44.3513,-2.4257 15.1095,-1.8361 29.3972,-3.5735 44.803,-2.0479 4.3779,0.4314 8.7665,0.9118 13.1692,1.3952 12.7952,1.4034 26.0245,2.8526 39.6312,3.1254 13.3879,0.2625 25.7457,-1.1563 37.6519,-2.5337 5.0518,-0.5847 10.2655,-1.1902 15.4936,-1.6541 13.5538,-1.2046 25.1711,0.3673 37.483,2.0345 6.6217,0.8966 13.4692,1.8258 20.8246,2.3404 15.7727,1.1006 32.6883,0.729 48.9443,-1.0759 l 3.2913,-0.368 c 13.8359,-1.5476 28.1589,-3.1808 42.4217,-2.9248 8.89,0.1377 16.2697,1.3629 24.0838,2.6623 6.2335,1.0357 12.6791,2.1068 20.0168,2.6045 3.8347,0.2612 7.4187,0.3767 10.7983,0.3767 13.0987,0 23.1351,-1.7296 32.9071,-3.4163 9.9695,-1.7178 19.3785,-3.3408 32.1525,-3.3408 1.6722,0 3.0231,-0.4978 3.0231,-1.1137 0,-0.6159 -1.3509,-1.1146 -3.0231,-1.1146 -14.1217,0 -24.589,1.806 -34.7172,3.5512 -11.9557,2.0635 -23.2266,4.0115 -40.04,2.868 -6.6181,-0.4496 -12.4497,-1.4206 -18.6303,-2.4458 -7.994,-1.3294 -16.2631,-2.7029 -26.3173,-2.8588 -15.4023,-0.2027 -30.1096,1.4204 -44.4288,3.0226 l -3.2846,0.3653 c -15.3246,1.6997 -31.249,2.0542 -46.0762,1.0186 -6.858,-0.4795 -13.4654,-1.3763 -19.8577,-2.2418 -12.6189,-1.7087 -25.6752,-3.4707 -40.9893,-2.1115 -5.4292,0.4834 -10.7454,1.0996 -15.8889,1.6961 -11.9133,1.3799 -23.1778,2.6649 -35.5074,2.4349 -12.8976,-0.2585 -25.7772,-1.671 -38.2302,-3.038 -4.4627,-0.4873 -8.9044,-0.9744 -13.3424,-1.4123 -17.1661,-1.6906 -32.9634,0.2285 -48.2528,2.0867 -13.9983,1.6957 -27.1956,3.298 -41.3737,2.3481 -7.4507,-0.5002 -14.5241,-1.1618 -21.3574,-1.7998 -20.2,-1.8868 -39.271,-3.6706 -62.5543,-0.817 -17.7941,2.1752 -37.9447,4.6294 -58.7339,2.7491 -5.6727,-0.5132 -11.00331,-1.2577 -16.14681,-1.975 -10.29827,-1.4385 -20.96193,-2.9182 -34.07749,-2.4738 -9.86649,0.3366 -19.04148,1.5251 -27.90891,2.6737 -12.1232,1.5737 -23.5966,3.049 -36.0567,2.3772 -7.75089,-0.4249 -15.49601,-1.3775 -22.98724,-2.3001 -11.69775,-1.4411 -23.86234,-2.924 -36.8241,-2.5901 -11.00066,0.2885 -21.51665,1.4775 -31.69004,2.6262 -14.52176,1.6386 -28.20382,3.1966 -43.17463,2.3286 -8.03452,-0.4613 -15.30146,-1.6192 -22.99343,-2.8484 -9.96069,-1.5892 -20.26449,-3.2339 -32.35772,-3.2339 z" />
    </g>
  </g>
</svg>
