<?xml version="1.0" encoding="UTF-8" standalone="no"?>
<!-- Created with Inkscape (http://www.inkscape.org/) -->

<svg
   version="1.1"
   id="svg2181"
   xml:space="preserve"
   width="4000"
   height="2666.6667"
   viewBox="0 0 4000 2666.6667"
   sodipodi:docname="waves.svg"
   inkscape:version="1.1.2 (0a00cf5339, 2022-02-04)"
   xmlns:inkscape="http://www.inkscape.org/namespaces/inkscape"
   xmlns:sodipodi="http://sodipodi.sourceforge.net/DTD/sodipodi-0.dtd"
   xmlns="http://www.w3.org/2000/svg"
   xmlns:svg="http://www.w3.org/2000/svg"><defs
     id="defs2185" /><sodipodi:namedview
     id="namedview2183"
     pagecolor="#ffffff"
     bordercolor="#666666"
     borderopacity="1.0"
     inkscape:pageshadow="2"
     inkscape:pageopacity="0.0"
     inkscape:pagecheckerboard="0"
     showgrid="false"
     inkscape:zoom="0.26662499"
     inkscape:cx="1999.0624"
     inkscape:cy="1333.3334"
     inkscape:window-width="954"
     inkscape:window-height="1172"
     inkscape:window-x="960"
     inkscape:window-y="22"
     inkscape:window-maximized="1"
     inkscape:current-layer="g2187" /><g
     id="g2187"
     inkscape:groupmode="layer"
     inkscape:label="ink_ext_XXXXXX"
     transform="matrix(1.3333333,0,0,-1.3333333,0,2666.6667)"><path
       d="M 3000,0 H 0 V 2000 H 3000 V 0"
       style="fill:#ffffff;fill-opacity:1;fill-rule:nonzero;stroke:none;stroke-width:0.1"
       id="path2191" /><path
       d="m 2797.58,568.94 c -31.35,-28.65 -83.24,-20.45 -113.34,3.57 -23.96,19.14 -39.35,52.97 -36.61,80.43 1.95,19.72 12.5,35.03 30.51,44.29 2.48,1.29 2.95,3.6 3,4.88 0.09,2.43 -1.06,4.64 -3.08,5.9 -16.16,10 -43.7,17.68 -83.49,-2.75 -25.73,-13.18 -43.8,-39.14 -61.26,-64.24 -2.98,-4.28 -5.94,-8.51 -8.88,-12.63 -2.73,-3.82 -5.43,-7.72 -8.12,-11.64 -17.7,-25.65 -36,-52.16 -69.34,-61.78 -29.48,-8.53 -61.69,-1.97 -86.12,17.54 -23.97,19.15 -39.37,52.99 -36.62,80.45 1.97,19.7 12.52,35.01 30.52,44.27 2.48,1.29 2.95,3.6 3,4.88 0.09,2.43 -1.06,4.64 -3.08,5.9 -16.16,10 -43.7,17.68 -83.49,-2.75 -24.47,-12.53 -44.35,-40.54 -65.4,-70.19 -16.78,-23.66 -34.14,-48.12 -55.16,-66.28 -13.86,-12.68 -31.82,-18.1 -50.12,-18.1 -22.89,0 -46.33,8.46 -63.05,21.82 -23.95,19.14 -39.36,52.97 -36.61,80.43 1.97,19.72 12.52,35.03 30.52,44.29 2.48,1.27 2.93,3.59 2.98,4.86 0.1,2.45 -1.04,4.66 -3.08,5.92 -16.09,10 -43.63,17.68 -83.47,-2.75 -25.74,-13.19 -43.82,-39.15 -61.3,-64.27 -2.97,-4.28 -5.92,-8.5 -8.86,-12.6 -2.73,-3.82 -5.42,-7.72 -8.12,-11.64 -17.69,-25.65 -36,-52.16 -69.33,-61.78 -29.52,-8.5 -61.7,-1.95 -86.12,17.54 -23.98,19.15 -39.37,52.99 -36.63,80.45 1.97,19.7 12.52,35.01 30.53,44.27 2.48,1.29 2.94,3.6 2.99,4.88 0.1,2.43 -1.06,4.64 -3.07,5.9 -16.16,10 -43.69,17.68 -83.49,-2.75 -24.48,-12.53 -44.35,-40.54 -65.4,-70.19 -16.79,-23.66 -34.15,-48.12 -55.17,-66.28 -31.17,-28.52 -83.07,-20.29 -113.15,3.72 -23.96,19.14 -39.37,52.97 -36.63,80.43 1.97,19.72 12.52,35.03 30.53,44.29 2.48,1.29 2.94,3.6 2.99,4.88 0.1,2.43 -1.06,4.64 -3.07,5.9 -16.16,10 -43.71,17.68 -83.49,-2.75 -25.75,-13.19 -43.82,-39.15 -61.3,-64.27 -2.98,-4.28 -5.92,-8.5 -8.87,-12.6 -2.72,-3.82 -5.42,-7.72 -8.11,-11.64 -17.7,-25.65 -36,-52.16 -69.32,-61.78 -29.53,-8.53 -61.68,-1.97 -86.14,17.54 -23.96,19.15 -39.37,52.99 -36.62,80.45 1.96,19.7 12.51,35.01 30.52,44.27 2.48,1.29 2.94,3.6 2.99,4.88 0.1,2.43 -1.05,4.64 -3.07,5.9 -16.16,10 -43.7,17.68 -83.49,-2.75 -24.472,-12.53 -44.349,-40.53 -65.382,-70.17 -16.784,-23.67 -34.146,-48.12 -55.18,-66.3 -31.186,-28.52 -83.059,-20.29 -113.154,3.72 -23.96,19.14 -39.372,52.97 -36.627,80.43 1.968,19.72 12.518,35.03 30.525,44.29 2.48,1.29 2.944,3.6 2.994,4.88 0.098,2.43 -1.059,4.64 -3.076,5.9 -16.156,10 -43.721,17.68 -83.473,-2.75 -25.763,-13.19 -43.836,-39.15 -61.315,-64.27 -2.976,-4.28 -5.92,-8.5 -8.862,-12.6 -2.746,-3.84 -5.44,-7.74 -8.136,-11.66 -17.694,-25.65 -35.966,-52.15 -69.301,-61.76 -29.533,-8.53 -61.679,-1.97 -86.135,17.54 -23.96,19.14 -39.355,52.97 -36.61,80.43 1.951,19.72 12.501,35.03 30.508,44.29 2.481,1.29 2.944,3.6 2.993,4.88 0.099,2.43 -1.058,4.64 -3.076,5.9 -16.155,10 -43.72,17.68 -83.472,-2.75 -24.473,-12.53 -44.366,-40.54 -65.399,-70.19 -16.8,-23.65 -34.162,-48.12 -55.18,-66.28 -3.522,-3.06 -8.879,-2.67 -11.939,0.86 -3.059,3.54 -2.678,8.9 0.86,11.94 19.48,16.84 36.23,40.45 52.452,63.28 22.273,31.39 43.324,61.04 71.5,75.47 46.813,23.98 80.298,14.32 100.108,2.05 7.176,-4.44 11.41,-12.48 11.062,-20.98 -0.331,-8.3 -4.878,-15.49 -12.17,-19.23 -12.815,-6.6 -20.025,-17 -21.414,-30.91 -2.166,-21.81 10.881,-49.97 30.36,-65.53 20.124,-16.07 46.597,-21.53 70.855,-14.5 27.516,7.94 43.324,30.84 60.058,55.1 2.762,4 5.507,7.99 8.318,11.9 2.893,4.04 5.787,8.21 8.714,12.42 17.793,25.57 37.966,54.55 67.499,69.68 46.796,24 80.264,14.34 100.124,2.05 7.176,-4.44 11.41,-12.48 11.062,-20.98 -0.33,-8.3 -4.878,-15.49 -12.17,-19.23 -12.832,-6.6 -20.025,-17 -21.414,-30.92 -2.182,-21.8 10.864,-49.96 30.343,-65.52 24.754,-19.76 67.351,-26.24 91.344,-4.3 19.644,16.99 36.412,40.6 52.616,63.43 22.274,31.41 43.308,61.04 71.484,75.47 46.846,23.98 80.286,14.32 100.126,2.05 7.18,-4.44 11.41,-12.48 11.06,-20.98 -0.33,-8.3 -4.88,-15.49 -12.17,-19.23 -12.81,-6.6 -20.02,-17 -21.41,-30.91 -2.17,-21.79 10.88,-49.97 30.36,-65.53 20.12,-16.07 46.59,-21.53 70.85,-14.5 27.52,7.94 43.33,30.86 60.08,55.11 2.74,4.01 5.5,7.99 8.3,11.89 2.89,4.04 5.78,8.21 8.71,12.42 17.79,25.57 37.97,54.55 67.5,69.68 46.81,24 80.28,14.34 100.12,2.05 7.18,-4.44 11.41,-12.48 11.07,-20.98 -0.33,-8.3 -4.88,-15.49 -12.17,-19.23 -12.84,-6.6 -20.03,-17 -21.42,-30.92 -2.18,-21.8 10.87,-49.96 30.35,-65.52 24.72,-19.76 67.35,-26.24 91.34,-4.3 19.63,16.99 36.39,40.6 52.6,63.42 22.27,31.4 43.32,61.05 71.5,75.48 46.85,23.98 80.26,14.32 100.12,2.05 7.18,-4.44 11.41,-12.48 11.07,-20.98 -0.33,-8.3 -4.88,-15.49 -12.17,-19.23 -12.82,-6.6 -20.03,-17 -21.42,-30.91 -2.18,-21.79 10.87,-49.97 30.35,-65.53 20.15,-16.09 46.63,-21.48 70.85,-14.5 27.53,7.94 43.34,30.86 60.09,55.13 2.76,3.99 5.51,7.97 8.3,11.87 2.9,4.04 5.79,8.21 8.72,12.42 17.79,25.57 37.96,54.55 67.5,69.68 46.84,24.03 80.29,14.32 100.1,2.05 7.18,-4.44 11.41,-12.5 11.08,-20.98 -0.35,-8.3 -4.89,-15.49 -12.17,-19.23 -12.83,-6.6 -20.02,-17 -21.41,-30.92 -2.18,-21.8 10.86,-49.96 30.34,-65.52 24.76,-19.76 67.38,-26.17 91.35,-4.3 19.62,16.99 36.39,40.6 52.59,63.42 22.28,31.4 43.33,61.05 71.51,75.48 46.81,24 80.28,14.34 100.12,2.05 7.18,-4.44 11.41,-12.48 11.06,-20.98 -0.33,-8.3 -4.88,-15.49 -12.17,-19.23 -12.81,-6.6 -20.02,-17 -21.41,-30.91 -2.19,-21.79 10.86,-49.97 30.34,-65.53 20.17,-16.09 46.68,-21.49 70.86,-14.5 27.53,7.94 43.34,30.86 60.09,55.13 2.76,3.99 5.5,7.97 8.3,11.87 2.89,4.06 5.8,8.22 8.75,12.46 17.77,25.56 37.93,54.51 67.45,69.64 46.84,23.98 80.29,14.32 100.12,2.05 7.18,-4.44 11.41,-12.48 11.06,-20.98 -0.33,-8.3 -4.88,-15.49 -12.17,-19.23 -12.81,-6.6 -20.02,-17 -21.41,-30.91 -2.17,-21.81 10.88,-49.97 30.36,-65.53 24.73,-19.76 67.36,-26.17 91.34,-4.3 3.47,3.15 8.81,2.91 11.96,-0.54 3.15,-3.44 2.91,-8.8 -0.55,-11.96"
       style="fill:#1cabf2;fill-opacity:1;fill-rule:nonzero;stroke:none;stroke-width:0.1"
       id="path2193" /><path
       d="m 2796.87,286.74 c -12.02,-8.86 -24.51,-15.35 -37.14,-19.26 -13.94,-4.4 -27.88,-6.55 -41.34,-6.55 -22.15,0 -42.95,5.86 -60.12,17.38 -18.69,12.49 -30.25,33.02 -30.88,54.91 -0.32,10.46 1.82,21.28 6.19,31.28 3.87,8.93 10.39,21.38 22.08,26.48 13.29,5.77 28.99,0.84 36.65,-11.37 3.78,-6.02 5.28,-13.52 4.11,-20.55 -0.25,-1.48 -0.59,-2.92 -0.9,-4.33 -1.01,-4.24 -1.04,-5.13 -0.24,-6.37 1.17,-1.78 4.28,-2.65 6.97,-1.97 3.21,0.8 6.53,3.48 9.07,7.36 12.72,19.29 12.5,40.32 -0.61,56.27 -12.7,15.45 -34.22,24.31 -53.83,22.51 -18.19,-1.86 -37.25,-11.05 -53.67,-25.93 -22.13,-19.78 -38.83,-47.02 -53.58,-71.06 -13.31,-21.42 -25.98,-36.77 -38.7,-47.12 -0.45,-0.59 -0.87,-1.21 -1.51,-1.68 -12.02,-8.86 -24.51,-15.35 -37.13,-19.26 -13.94,-4.4 -27.89,-6.55 -41.35,-6.55 -22.15,0 -42.95,5.86 -60.12,17.38 -18.69,12.49 -30.24,33.02 -30.88,54.91 -0.31,10.46 1.83,21.28 6.19,31.28 3.88,8.93 10.4,21.38 22.09,26.48 13.27,5.77 28.99,0.84 36.64,-11.37 3.78,-6.02 5.29,-13.52 4.12,-20.55 -0.25,-1.48 -0.59,-2.92 -0.91,-4.33 -1,-4.24 -1.03,-5.13 -0.23,-6.37 1.15,-1.78 4.33,-2.65 6.97,-1.97 3.21,0.8 6.52,3.48 9.06,7.36 12.74,19.31 12.51,40.34 -0.58,56.27 -12.71,15.45 -34.19,24.31 -53.85,22.51 -18.19,-1.86 -37.25,-11.05 -53.67,-25.93 -22.14,-19.78 -38.84,-47.02 -53.58,-71.06 -13.31,-21.42 -25.98,-36.77 -38.69,-47.12 -0.47,-0.59 -0.89,-1.21 -1.52,-1.68 -12.02,-8.86 -24.51,-15.35 -37.13,-19.26 -13.95,-4.4 -27.89,-6.55 -41.35,-6.55 -22.15,0 -42.95,5.86 -60.12,17.38 -18.69,12.49 -30.24,33.02 -30.88,54.91 -0.32,10.46 1.82,21.28 6.19,31.28 3.88,8.93 10.4,21.38 22.08,26.48 13.26,5.77 28.98,0.84 36.65,-11.37 3.78,-6.02 5.28,-13.52 4.11,-20.55 -0.25,-1.48 -0.58,-2.92 -0.9,-4.33 -1,-4.24 -1.04,-5.13 -0.23,-6.37 1.15,-1.78 4.31,-2.65 6.97,-1.97 4.39,1.09 7.57,5.07 9.06,7.36 12.74,19.31 12.5,40.34 -0.59,56.27 -12.7,15.45 -34.32,24.31 -53.85,22.51 -18.19,-1.86 -37.25,-11.05 -53.66,-25.93 -22.14,-19.78 -38.84,-47.02 -53.59,-71.06 -13.31,-21.42 -25.98,-36.77 -38.7,-47.12 -0.45,-0.59 -0.87,-1.21 -1.51,-1.68 -12.02,-8.86 -24.51,-15.35 -37.13,-19.26 -13.94,-4.4 -27.88,-6.55 -41.34,-6.55 -22.16,0 -42.95,5.86 -60.12,17.38 -18.69,12.49 -30.25,33.02 -30.88,54.91 -0.32,10.46 1.82,21.28 6.18,31.28 3.88,8.93 10.4,21.38 22.09,26.48 13.26,5.77 29,0.84 36.65,-11.37 3.77,-6.02 5.28,-13.52 4.11,-20.55 -0.25,-1.48 -0.59,-2.92 -0.9,-4.33 -1.01,-4.24 -1.04,-5.13 -0.24,-6.37 1.17,-1.78 4.3,-2.65 6.97,-1.97 4.4,1.09 7.58,5.07 9.06,7.36 12.74,19.31 12.51,40.34 -0.58,56.27 -12.71,15.45 -34.27,24.31 -53.85,22.51 -18.19,-1.86 -37.25,-11.05 -53.67,-25.93 -22.13,-19.78 -38.84,-47.02 -53.58,-71.06 -13.31,-21.42 -25.98,-36.77 -38.69,-47.12 -0.47,-0.59 -0.88,-1.21 -1.52,-1.68 -12.02,-8.86 -24.51,-15.35 -37.13,-19.26 -13.95,-4.4 -27.89,-6.55 -41.35,-6.55 -22.15,0 -42.95,5.86 -60.12,17.38 -18.69,12.49 -30.24,33.02 -30.88,54.91 -0.31,10.46 1.83,21.28 6.19,31.28 3.88,8.93 10.4,21.38 22.08,26.48 13.31,5.77 28.98,0.84 36.65,-11.37 3.78,-6.02 5.28,-13.52 4.11,-20.55 -0.25,-1.48 -0.58,-2.92 -0.9,-4.33 -1,-4.24 -1.03,-5.13 -0.23,-6.37 1.15,-1.78 4.28,-2.65 6.97,-1.97 4.4,1.09 7.57,5.07 9.06,7.36 12.74,19.31 12.51,40.34 -0.58,56.27 -12.71,15.45 -34.09,24.26 -53.84,22.51 -18.2,-1.86 -37.26,-11.05 -53.68,-25.93 -22.15,-19.82 -38.86,-47.03 -53.59,-71.06 -13.3,-21.42 -25.98,-36.77 -38.7,-47.12 -0.45,-0.59 -0.87,-1.21 -1.5,-1.68 -12.02,-8.86 -24.51,-15.35 -37.14,-19.26 -13.94,-4.4 -27.88,-6.55 -41.34,-6.55 -22.15,0 -42.95,5.86 -60.12,17.38 -18.69,12.49 -30.25,33.02 -30.88,54.91 -0.3,10.51 1.84,21.33 6.19,31.28 3.87,8.93 10.39,21.38 22.08,26.48 13.29,5.77 28.99,0.84 36.65,-11.37 3.78,-6.02 5.28,-13.52 4.11,-20.55 -0.25,-1.48 -0.58,-2.92 -0.9,-4.33 -1.01,-4.24 -1.04,-5.13 -0.24,-6.37 1.16,-1.78 4.33,-2.65 6.98,-1.97 3.22,0.8 6.52,3.48 9.06,7.34 12.74,19.33 12.5,40.36 -0.59,56.29 -12.69,15.45 -34.17,24.26 -53.83,22.51 -18.21,-1.86 -37.27,-11.05 -53.69,-25.93 -22.15,-19.82 -38.85,-47.03 -53.58,-71.06 -13.31,-21.42 -25.98,-36.77 -38.69,-47.12 -0.46,-0.59 -0.88,-1.21 -1.52,-1.68 -12.02,-8.86 -24.51,-15.35 -37.13,-19.26 -13.94,-4.4 -27.89,-6.55 -41.345,-6.55 -22.152,0 -42.95,5.86 -60.12,17.38 -18.691,12.49 -30.244,33.02 -30.879,54.91 -0.285,10.46 1.838,21.28 6.169,31.28 3.895,8.93 10.416,21.38 22.102,26.48 13.291,5.77 28.99,0.84 36.647,-11.37 3.812,-6.05 5.3,-13.56 4.113,-20.58 -0.251,-1.45 -0.585,-2.89 -0.903,-4.3 -1.003,-4.24 -1.036,-5.13 -0.234,-6.37 1.153,-1.78 4.313,-2.65 6.972,-1.97 3.226,0.8 6.536,3.48 9.078,7.36 12.723,19.31 12.489,40.34 -0.602,56.27 -12.706,15.45 -34.239,24.26 -53.834,22.51 -18.207,-1.86 -37.266,-11.05 -53.667,-25.92 -22.169,-19.83 -38.871,-47.04 -53.6,-71.07 -8.527,-13.73 -21.751,-33.21 -38.536,-46.95 -0.485,-0.66 -0.97,-1.33 -1.672,-1.85 -12.021,-8.86 -24.51,-15.35 -37.133,-19.26 -13.943,-4.4 -27.886,-6.55 -41.345,-6.55 -22.152,0 -42.95,5.86 -60.12,17.38 -18.691,12.49 -30.244,33.02 -30.879,54.91 -0.285,10.46 1.839,21.28 6.169,31.28 3.895,8.93 10.415,21.38 22.102,26.48 13.275,5.77 28.973,0.84 36.647,-11.37 3.812,-6.05 5.3,-13.56 4.113,-20.58 -0.251,-1.45 -0.585,-2.89 -0.903,-4.3 -1.003,-4.24 -1.036,-5.13 -0.234,-6.37 1.171,-1.78 4.364,-2.65 6.955,-1.97 3.244,0.8 6.554,3.48 9.095,7.36 12.723,19.31 12.489,40.34 -0.602,56.27 -12.706,15.45 -34.123,24.26 -53.834,22.51 -18.207,-1.86 -37.266,-11.05 -53.666,-25.92 -22.17,-19.83 -38.872,-47.04 -53.601,-71.07 -8.526,-13.73 -21.751,-33.21 -38.536,-46.95 -0.485,-0.66 -0.97,-1.33 -1.672,-1.85 -12.021,-8.86 -24.51,-15.35 -37.115,-19.26 -13.944,-4.4 -27.904,-6.55 -41.363,-6.55 -22.152,0 -42.95,5.86 -60.103,17.38 -18.709,12.49 -30.261,33.02 -30.896,54.91 -0.284,10.46 1.839,21.28 6.169,31.28 3.895,8.93 10.415,21.38 22.102,26.48 13.274,5.77 28.99,0.84 36.647,-11.37 3.812,-6.05 5.3,-13.56 4.113,-20.58 -0.251,-1.45 -0.585,-2.89 -0.903,-4.3 -1.003,-4.24 -1.036,-5.13 -0.234,-6.37 1.17,-1.78 4.347,-2.65 6.955,-1.97 3.244,0.8 6.554,3.48 9.095,7.36 12.723,19.31 12.489,40.34 -0.602,56.27 -12.706,15.45 -34.457,24.46 -53.834,22.51 -18.206,-1.86 -37.265,-11.05 -53.667,-25.92 -22.169,-19.83 -38.87,-47.04 -53.6,-71.07 -8.794,-14.16 -22.486,-34.52 -40.007,-48.3 -3.696,-2.84 -9.112,-2.27 -12.021,1.46 -2.909,3.71 -2.274,9.09 1.454,12.02 11.553,9.07 23.323,23.4 36.012,43.82 15.315,24.97 32.702,53.33 56.71,74.79 13.459,12.19 35.427,27.39 63.38,30.22 25.547,2.47 52.38,-8.68 68.798,-28.66 17.838,-21.7 18.491,-51.04 1.688,-76.57 -4.965,-7.53 -11.82,-12.69 -19.277,-14.55 -9.897,-2.44 -20.346,1.37 -25.462,9.3 -4.865,7.56 -3.243,14.49 -2.056,19.56 0.234,1.05 0.501,2.14 0.685,3.24 0.502,2.91 -0.15,6.12 -1.722,8.63 -3.21,5.13 -9.914,7.14 -15.314,4.78 -6.871,-2.99 -11.653,-13.99 -13.241,-17.6 -3.327,-7.71 -4.983,-16 -4.748,-23.98 0.468,-16.35 9.178,-31.73 23.289,-41.16 23.272,-15.61 54.92,-18.79 86.836,-8.73 10.684,3.33 20.916,8.68 31.264,16.2 0.217,0.22 0.351,0.51 0.602,0.71 11.553,9.07 23.323,23.4 36.012,43.82 15.314,24.97 32.702,53.33 56.71,74.79 13.458,12.19 35.427,27.39 63.38,30.22 25.346,2.57 52.363,-8.68 68.781,-28.66 17.856,-21.7 18.507,-51.04 1.705,-76.57 -4.966,-7.53 -11.82,-12.69 -19.276,-14.55 -9.881,-2.44 -20.364,1.37 -25.463,9.3 -4.865,7.56 -3.243,14.49 -2.056,19.56 0.234,1.05 0.501,2.14 0.685,3.24 0.502,2.91 -0.15,6.12 -1.722,8.63 -3.227,5.13 -9.897,7.14 -15.314,4.78 -6.871,-2.99 -11.653,-13.99 -13.242,-17.6 -3.326,-7.71 -4.982,-16 -4.747,-23.98 0.468,-16.33 9.178,-31.73 23.289,-41.16 23.289,-15.61 54.954,-18.79 86.82,-8.73 10.699,3.33 20.931,8.67 31.281,16.2 0.217,0.22 0.35,0.51 0.601,0.71 11.553,9.07 23.323,23.4 36.012,43.82 15.314,24.97 32.701,53.33 56.71,74.79 13.458,12.19 35.427,27.39 63.38,30.22 25.429,2.57 52.346,-8.68 68.781,-28.66 17.854,-21.7 18.504,-51.04 1.704,-76.57 -4.964,-7.53 -11.819,-12.69 -19.275,-14.55 -9.781,-2.42 -20.33,1.37 -25.463,9.3 -4.865,7.56 -3.243,14.49 -2.056,19.56 0.234,1.05 0.501,2.14 0.685,3.24 0.502,2.91 -0.15,6.12 -1.722,8.63 -3.227,5.13 -9.88,7.14 -15.315,4.78 -6.871,-2.99 -11.652,-13.99 -13.24,-17.6 -3.328,-7.71 -4.983,-16 -4.749,-23.98 0.468,-16.33 9.179,-31.73 23.29,-41.16 23.272,-15.61 54.937,-18.79 86.815,-8.73 10.7,3.33 20.94,8.68 31.29,16.2 0.21,0.22 0.33,0.5 0.58,0.69 11.57,9.11 23.36,23.44 36.03,43.84 15.31,24.97 32.7,53.33 56.69,74.79 13.48,12.21 35.45,27.39 63.4,30.22 25.34,2.57 52.33,-8.68 68.78,-28.66 17.86,-21.7 18.51,-51.04 1.67,-76.57 -4.93,-7.53 -11.77,-12.69 -19.24,-14.55 -9.87,-2.42 -20.35,1.37 -25.46,9.3 -4.87,7.56 -3.25,14.49 -2.06,19.56 0.23,1.05 0.5,2.14 0.68,3.24 0.49,2.91 -0.16,6.14 -1.72,8.63 -3.21,5.13 -9.86,7.14 -15.31,4.78 -6.87,-2.99 -11.65,-13.99 -13.24,-17.6 -3.33,-7.68 -4.98,-15.97 -4.75,-23.98 0.47,-16.33 9.18,-31.73 23.29,-41.16 23.25,-15.61 54.95,-18.79 86.82,-8.73 10.7,3.33 20.93,8.68 31.28,16.2 0.22,0.22 0.33,0.5 0.58,0.69 11.57,9.11 23.36,23.44 36.03,43.84 15.32,24.97 32.7,53.33 56.7,74.79 13.47,12.21 35.44,27.39 63.39,30.22 25.41,2.57 52.35,-8.68 68.78,-28.66 17.86,-21.7 18.51,-51.04 1.67,-76.57 -4.96,-7.54 -11.78,-12.71 -19.24,-14.55 -9.84,-2.42 -20.34,1.37 -25.46,9.3 -4.87,7.56 -3.24,14.49 -2.06,19.56 0.24,1.05 0.5,2.14 0.69,3.24 0.48,2.91 -0.17,6.14 -1.72,8.63 -3.23,5.13 -9.92,7.14 -15.32,4.78 -6.87,-2.99 -11.65,-13.99 -13.24,-17.6 -3.34,-7.71 -5,-15.99 -4.75,-23.96 0.47,-16.35 9.18,-31.75 23.29,-41.18 23.27,-15.61 54.94,-18.79 86.82,-8.73 10.7,3.33 20.93,8.68 31.28,16.2 0.22,0.22 0.34,0.5 0.59,0.69 11.57,9.11 23.35,23.44 36.03,43.84 15.33,24.99 32.73,53.36 56.69,74.79 13.48,12.21 35.44,27.39 63.38,30.22 25.35,2.57 52.36,-8.68 68.8,-28.66 17.85,-21.7 18.51,-51.04 1.67,-76.57 -4.97,-7.54 -11.79,-12.71 -19.24,-14.55 -9.85,-2.42 -20.35,1.37 -25.47,9.3 -4.86,7.56 -3.24,14.49 -2.05,19.56 0.23,1.05 0.5,2.14 0.68,3.24 0.49,2.91 -0.16,6.14 -1.72,8.63 -3.21,5.13 -9.91,7.14 -15.31,4.78 -6.88,-2.99 -11.66,-13.99 -13.25,-17.6 -3.34,-7.71 -4.99,-15.99 -4.74,-23.96 0.47,-16.35 9.18,-31.75 23.29,-41.18 23.27,-15.61 54.92,-18.79 86.82,-8.73 10.7,3.33 20.93,8.68 31.28,16.2 0.21,0.22 0.33,0.5 0.58,0.69 11.57,9.11 23.36,23.44 36.03,43.84 15.33,24.99 32.74,53.36 56.69,74.79 13.48,12.21 35.45,27.39 63.38,30.22 25.43,2.57 52.37,-8.68 68.8,-28.66 17.86,-21.7 18.51,-51.04 1.67,-76.57 -4.96,-7.54 -11.78,-12.71 -19.24,-14.55 -9.85,-2.42 -20.35,1.37 -25.46,9.3 -4.87,7.56 -3.25,14.49 -2.06,19.56 0.24,1.05 0.5,2.14 0.69,3.24 0.48,2.91 -0.17,6.14 -1.73,8.63 -3.22,5.13 -9.89,7.14 -15.31,4.78 -6.87,-2.99 -11.65,-13.99 -13.24,-17.6 -3.34,-7.71 -5,-15.99 -4.75,-23.96 0.47,-16.35 9.18,-31.75 23.29,-41.18 23.27,-15.61 54.95,-18.79 86.82,-8.73 10.7,3.33 20.93,8.68 31.28,16.2 0.22,0.22 0.33,0.5 0.59,0.69 11.57,9.11 23.35,23.44 36.02,43.84 15.34,24.99 32.74,53.36 56.7,74.79 13.47,12.21 35.44,27.39 63.38,30.22 25.33,2.57 52.36,-8.68 68.8,-28.66 17.85,-21.7 18.5,-51.04 1.67,-76.57 -4.95,-7.53 -11.79,-12.69 -19.23,-14.55 -9.86,-2.42 -20.36,1.37 -25.48,9.3 -4.86,7.56 -3.24,14.49 -2.05,19.56 0.23,1.05 0.5,2.14 0.68,3.24 0.49,2.91 -0.17,6.14 -1.72,8.63 -3.23,5.13 -9.88,7.14 -15.32,4.78 -6.87,-2.99 -11.65,-13.99 -13.24,-17.6 -3.34,-7.71 -5,-15.99 -4.75,-23.96 0.47,-16.35 9.18,-31.75 23.29,-41.18 23.28,-15.61 54.92,-18.79 86.82,-8.73 10.7,3.33 20.94,8.68 31.28,16.2 0.22,0.22 0.34,0.5 0.59,0.69 11.57,9.11 23.36,23.44 36.03,43.84 15.33,24.99 32.73,53.36 56.69,74.79 13.48,12.21 35.45,27.39 63.38,30.22 25.41,2.57 52.36,-8.68 68.8,-28.66 17.85,-21.72 18.49,-51.06 1.67,-76.57 -4.95,-7.53 -11.79,-12.69 -19.23,-14.55 -9.94,-2.42 -20.36,1.37 -25.47,9.3 -4.87,7.56 -3.25,14.49 -2.06,19.56 0.23,1.05 0.5,2.14 0.68,3.24 0.49,2.91 -0.16,6.14 -1.72,8.63 -3.22,5.13 -9.88,7.14 -15.31,4.78 -6.87,-2.99 -11.66,-13.99 -13.24,-17.6 -3.35,-7.71 -5,-15.99 -4.75,-23.96 0.47,-16.35 9.18,-31.75 23.29,-41.18 23.25,-15.61 54.95,-18.79 86.82,-8.73 10.98,3.41 21.46,8.86 32.08,16.71 3.83,2.82 9.18,1.99 11.97,-1.81 2.81,-3.81 1.99,-9.16 -1.8,-11.97"
       style="fill:#1cabf2;fill-opacity:1;fill-rule:nonzero;stroke:none;stroke-width:0.1"
       id="path2195" /><path
       d="m 2799.08,1185.45 c -4.18,2.07 -9.36,0.47 -11.53,-3.77 -21.79,-42.94 -72.03,-70.67 -128,-70.67 -56.03,0 -106.34,27.75 -128.18,70.69 -6.16,12.17 -27.48,12.12 -33.68,-0.02 -21.79,-42.94 -72.03,-70.67 -127.99,-70.67 -56.04,0 -106.35,27.75 -128.18,70.69 -6.17,12.17 -27.5,12.12 -33.68,-0.02 -21.79,-42.94 -72.03,-70.67 -128,-70.67 -56.03,0 -106.34,27.75 -128.18,70.69 -6.18,12.17 -27.5,12.12 -33.68,-0.02 -21.78,-42.94 -72.02,-70.67 -127.99,-70.67 -56.04,0 -106.34,27.75 -128.18,70.69 -6.18,12.17 -27.5,12.12 -33.68,-0.02 -21.79,-42.94 -72.03,-70.67 -127.98,-70.67 -56.05,0 -106.36,27.75 -128.2,70.69 -6.18,12.17 -27.48,12.12 -33.67,-0.02 -21.79,-42.94 -72.03,-70.67 -127.98,-70.67 -56.04,0 -106.34,27.75 -128.2,70.69 -6.16,12.17 -27.48,12.12 -33.68,-0.02 -21.78,-42.94 -72.025,-70.67 -127.976,-70.67 -56.035,0 -106.342,27.75 -128.197,70.69 -6.163,12.17 -27.482,12.12 -33.678,-0.02 -21.788,-42.94 -72.028,-70.67 -127.979,-70.67 -56.035,0 -106.342,27.75 -128.197,70.69 -6.163,12.17 -27.482,12.12 -33.678,-0.02 -21.787,-42.94 -72.028,-70.67 -127.979,-70.67 -56.035,0 -106.342,27.75 -128.197,70.69 -2.11,4.22 -7.285,5.86 -11.522,3.75 -4.22,-2.15 -5.911,-7.3 -3.751,-11.52 24.735,-48.64 81.055,-80.07 143.47,-80.07 62.348,0 118.584,31.42 143.286,80.05 l 3.098,0.02 c 24.734,-48.64 81.054,-80.07 143.47,-80.07 62.348,0 118.584,31.42 143.285,80.05 l 3.099,0.02 c 24.734,-48.64 81.054,-80.07 143.47,-80.07 62.348,0 118.586,31.42 143.286,80.05 l 3.1,0.02 c 24.73,-48.64 81.05,-80.07 143.47,-80.07 62.35,0 118.58,31.42 143.28,80.05 l 3.1,0.02 c 24.72,-48.64 81.04,-80.07 143.47,-80.07 62.35,0 118.59,31.42 143.29,80.05 l 3.1,0.02 c 24.71,-48.64 81.02,-80.07 143.45,-80.07 62.35,0 118.6,31.42 143.3,80.05 l 3.1,0.02 c 24.72,-48.64 81.02,-80.07 143.45,-80.07 62.35,0 118.6,31.42 143.3,80.05 l 3.1,0.02 c 24.72,-48.64 81.02,-80.07 143.46,-80.07 62.34,0 118.6,31.42 143.3,80.05 l 3.1,0.02 c 24.72,-48.64 81.02,-80.07 143.45,-80.07 62.35,0 118.6,31.42 143.3,80.05 2.15,4.22 0.45,9.39 -3.77,11.54"
       style="fill:#1cabf2;fill-opacity:1;fill-rule:nonzero;stroke:none;stroke-width:0.1"
       id="path2197" /><path
       d="m 2803.77,1372.46 c 0,-4.74 -3.83,-8.57 -8.57,-8.57 -34.87,0 -61.19,-23.41 -89.08,-48.21 -28.08,-24.99 -56.94,-50.66 -95.09,-50.66 -10.03,0 -20.68,1.77 -32.13,5.79 -25.83,9.04 -45.69,26.24 -64.88,42.87 -19.68,17.02 -38.25,33.11 -62.53,40.76 -28.91,9.08 -58.26,2.28 -87.17,-20.28 -6.26,-4.9 -12.29,-10.11 -18.32,-15.34 -12.09,-10.43 -24.58,-21.21 -38.95,-29.55 -37.08,-21.52 -84.99,-23.62 -125.04,-5.45 -19.94,9.03 -34.29,23.55 -48.16,37.6 -16.39,16.58 -31.87,32.25 -55.78,38.65 -27.15,7.34 -55.18,-1.04 -88.14,-26.21 -6.21,-4.74 -12.28,-9.71 -18.36,-14.67 -14.72,-12.04 -29.94,-24.5 -47.31,-33.81 -38.43,-20.58 -86.53,-17.06 -128.69,9.51 -13.45,8.48 -25.01,18.56 -36.16,28.32 -18.96,16.55 -36.86,32.19 -61.88,38.17 -37.65,9.06 -68.96,-17.5 -99.36,-43.09 -9.88,-8.34 -19.22,-16.2 -28.84,-22.98 -77.38,-54.64 -130.62,-8.1 -187.01,41.08 l -1.96,1.71 c -57.88,50.63 -117.26,8.78 -140.04,-11.52 -3.26,-2.9 -6.54,-5.91 -9.86,-8.94 -22.94,-20.99 -48.93,-44.79 -82.38,-49.59 -50.02,-7.25 -83.73,21.3 -116.24,48.85 -28.88,24.48 -55.947,47.88 -94.013,45.92 -31.367,-1.39 -55.131,-22.29 -80.318,-44.41 -31.969,-28.11 -65.011,-57.23 -115.402,-46.14 -32.003,7 -57.844,27.11 -82.847,46.55 -14.419,11.22 -28.034,21.82 -42.671,30 -49.62,27.75 -80.468,2.11 -116.155,-27.63 -15.592,-13.02 -31.719,-26.45 -50.274,-36.1 -27.114,-14.08 -67.34,-26.45 -105.003,-5.27 -17.534,9.86 -33.209,23.43 -48.365,36.56 -28.235,24.43 -54.896,47.51 -91.889,47.51 -4.74,0 -8.575,3.83 -8.575,8.57 0,4.74 3.835,8.58 8.575,8.58 43.39,0 73.752,-26.28 103.11,-51.7 15.189,-13.15 29.524,-25.55 45.551,-34.58 30.999,-17.42 65.329,-6.58 88.691,5.54 16.914,8.79 32.305,21.64 47.193,34.05 37.144,30.95 75.461,63.03 135.514,29.44 15.76,-8.83 30.547,-20.31 44.832,-31.43 24.568,-19.11 47.779,-37.18 75.964,-43.35 41.95,-9.19 70.32,15.81 100.43,42.27 26.292,23.11 53.49,47.01 90.868,48.67 44.53,2.03 75.744,-24.42 105.874,-49.97 30.98,-26.26 60.2,-51.1 102.71,-44.95 28.22,4.05 51.11,25 73.25,45.25 3.36,3.1 6.71,6.14 10.01,9.09 54.58,48.65 115.41,52.99 162.75,11.66 l 1.96,-1.71 c 55.56,-48.52 99.47,-86.78 165.84,-40.01 9.01,6.37 18.07,14 27.67,22.09 32.07,27.01 68.34,57.69 114.4,46.66 29.13,-6.95 49.48,-24.74 69.16,-41.94 10.68,-9.33 21.7,-18.95 34.03,-26.72 36.86,-23.23 78.54,-26.55 111.45,-8.91 15.91,8.54 29.83,19.93 44.56,31.98 6.22,5.08 12.43,10.17 18.79,15.02 23.65,18.02 60.02,40.58 103.01,29.16 28.39,-7.62 46.26,-25.71 63.52,-43.19 13.37,-13.51 25.99,-26.29 43.04,-34.03 35.1,-15.89 77.02,-14.13 109.36,4.67 12.98,7.52 24.33,17.34 36.34,27.7 6.25,5.41 12.49,10.8 18.99,15.86 33.14,25.89 68.73,33.9 102.88,23.13 27.66,-8.71 48.46,-26.73 68.59,-44.15 18.82,-16.29 36.59,-31.68 59.32,-39.65 45.62,-15.95 75.51,10.63 110.18,41.5 29.03,25.84 59.08,52.55 100.46,52.55 4.74,0 8.57,-3.84 8.57,-8.58"
       style="fill:#1cabf2;fill-opacity:1;fill-rule:nonzero;stroke:none;stroke-width:0.1"
       id="path2199" /><path
       d="m 196.328,1766.93 c 0,4.74 3.835,8.58 8.575,8.58 34.28,0 63.487,-12.66 91.722,-24.89 21.804,-9.46 42.403,-18.37 65.178,-21.92 42.437,-6.68 81.222,5.31 122.386,17.92 28.838,8.84 58.647,17.99 89.83,20.21 36.742,2.57 71.224,-8.84 104.383,-19.93 21.235,-7.1 43.19,-14.43 65.161,-17.7 35.32,-5.17 67.842,6.18 102.207,18.29 25.136,8.84 51.144,17.99 79.112,20.58 37.178,3.42 67.406,-7.97 96.598,-19.04 14.58,-5.52 29.69,-11.25 45.77,-15.2 58.93,-14.47 116.05,4.42 166.49,21.16 66,21.96 120.06,8.23 177.32,-6.29 19.37,-4.91 39.42,-10 60.54,-13.85 40.19,-7.31 77.6,5.02 117.28,18.07 43.34,14.3 88.12,29.07 136.78,16.06 12.58,-3.37 25.17,-7.12 37.82,-10.87 35.3,-10.52 71.81,-21.39 108.37,-23.38 34.95,-1.77 66.88,8.12 100.65,18.74 14.58,4.59 29.65,9.33 45.04,13.05 43.41,10.46 80.42,-3.1 116.19,-16.25 18.12,-6.66 36.85,-13.56 56.29,-17.25 42.03,-7.97 87.17,-5.24 130.61,7.84 l 9.31,2.81 c 40.59,12.33 82.28,24.82 125.94,23.26 28.5,-1.2 51.94,-11.77 74.6,-22 17.52,-7.89 34.05,-15.36 52.81,-18.82 47.66,-8.8 79.61,6.19 113.5,22.07 28.71,13.43 58.38,27.33 98.41,27.33 4.74,0 8.57,-3.84 8.57,-8.58 0,-4.74 -3.83,-8.57 -8.57,-8.57 -36.21,0 -62.88,-12.49 -91.14,-25.71 -27.7,-12.98 -56.15,-26.29 -93.28,-26.29 -9.58,0 -19.74,0.89 -30.61,2.9 -20.8,3.83 -39.07,12.07 -56.74,20.04 -22.15,10 -43.07,19.43 -68.27,20.49 -40.43,1.97 -81.03,-10.6 -120.25,-22.51 l -9.33,-2.83 c -46.08,-13.89 -94.03,-16.75 -138.74,-8.28 -20.85,3.96 -40.26,11.11 -59.03,18.01 -34.9,12.83 -67.83,24.93 -106.25,15.66 -14.82,-3.57 -29.6,-8.23 -43.92,-12.73 -33.75,-10.6 -68.78,-21.52 -106.73,-19.5 -38.57,2.1 -76.07,13.25 -112.34,24.05 -12.48,3.72 -24.92,7.42 -37.33,10.74 -43.67,11.74 -84.17,-1.63 -127,-15.76 -39.96,-13.18 -81.39,-26.7 -125.72,-18.67 -21.69,3.97 -42.02,9.12 -61.68,14.1 -57.07,14.5 -106.44,27.01 -167.7,6.65 -52.61,-17.45 -112.19,-37.23 -175.98,-21.54 -17.1,4.2 -32.69,10.1 -47.76,15.81 -28.622,10.85 -55.568,21.23 -88.944,18 -25.841,-2.39 -50.843,-11.19 -75.009,-19.68 -34.817,-12.25 -70.889,-24.88 -110.395,-19.05 -23.463,3.46 -46.138,11.05 -68.076,18.38 -33.025,11.06 -64.224,21.56 -97.751,19.08 -29.224,-2.08 -58.095,-10.94 -86.012,-19.49 -41.197,-12.63 -83.767,-25.69 -130.056,-18.48 -24.935,3.89 -47.511,13.67 -69.348,23.13 -27.85,12.08 -54.176,23.48 -84.906,23.48 -4.74,0 -8.575,3.83 -8.575,8.57"
       style="fill:#1cabf2;fill-opacity:1;fill-rule:nonzero;stroke:none;stroke-width:0.1"
       id="path2201" /><path
       d="m 196.228,1522.18 c 0,4.74 3.835,8.57 8.574,8.57 21.117,0 38.568,8.54 57.056,17.59 16.362,8 33.276,16.29 53.59,19 29.19,3.85 54.109,-6.65 78.224,-16.86 26.879,-11.35 52.234,-22.12 81.491,-11.81 10.098,3.57 19.694,8.19 29.842,13.1 12.343,5.96 25.12,12.12 38.803,16.16 32.137,9.46 60.356,-2.19 87.686,-13.46 14.972,-6.18 29.14,-12.03 43.81,-14.54 23.512,-4.05 43.458,4.57 64.575,13.68 25.087,10.84 51.028,22.04 84.086,12.75 13.616,-3.84 26.108,-10.15 38.183,-16.25 5.024,-2.54 10.031,-5.07 15.123,-7.42 26.627,-12.29 51.981,-13.48 75.31,-3.48 8.423,3.6 16.361,8.62 24.769,13.95 18.404,11.67 37.38,23.86 62.68,20.75 21.51,-2.55 38.77,-12.53 55.47,-22.17 18.3,-10.59 35.6,-20.59 57.67,-20.59 0.22,0 0.44,0 0.66,0 18.97,0.17 34.78,10.09 51.51,20.57 14.25,8.92 28.99,18.17 46.56,21.87 27.43,5.73 52.92,-8.44 75.51,-20.92 7.37,-4.1 14.58,-8.1 21.63,-11.27 26.05,-11.7 56.42,-12.27 77.41,-1.42 7.28,3.75 14.15,8.27 21.4,13.06 9.15,6.01 18.59,12.24 29.09,16.88 33.38,14.79 62.68,-2.21 91.05,-18.57 20.55,-11.87 40.08,-23.54 60.09,-22.36 18.71,0.67 34.88,11.21 52,22.36 23.36,15.21 49.84,32.51 83.62,19.73 12.36,-4.66 22.99,-11.27 33.27,-17.67 13.45,-8.37 26.14,-16.28 41.75,-19.36 20.89,-4.08 42.56,-2.34 59.57,4.84 11,4.64 20.1,10.33 28.89,15.86 22.47,14.07 43.71,27.43 82.51,11.37 10.35,-4.27 20.15,-9.63 29.61,-14.84 10.95,-5.99 21.28,-11.67 32.35,-15.75 32.27,-11.89 63.99,2.54 84.93,16.73 40.64,27.53 72.91,13.81 107.13,-0.69 8.54,-3.64 17.36,-7.37 26.64,-10.59 26.14,-9.04 55.85,-9.04 81.56,-0.03 9.12,3.2 17.58,8.76 26.52,14.65 15.18,10 31.34,19.73 51.42,19.9 20.58,-0.44 35.5,-11.09 49.92,-21.39 7.57,-5.39 14.7,-10.5 22.49,-14.05 44.83,-20.43 85.26,-2.93 111.3,15.31 42.95,30.06 74.91,12.83 105.82,-3.77 19.06,-10.25 38.75,-20.85 61.91,-20.85 4.75,0 8.58,-3.83 8.58,-8.57 0,-4.74 -3.83,-8.58 -8.58,-8.58 -27.48,0 -50.08,12.16 -70.03,22.9 -29.94,16.11 -53.61,28.78 -87.85,4.84 -42.06,-29.43 -87.59,-35.39 -128.25,-16.88 -9.31,4.23 -17.47,10.06 -25.36,15.7 -12.87,9.2 -25.01,17.87 -40.32,18.19 -15.49,0.15 -28.04,-8.12 -41.62,-17.06 -9.43,-6.2 -19.16,-12.63 -30.29,-16.52 -29.29,-10.25 -63.12,-10.25 -92.81,0 -9.68,3.35 -18.86,7.24 -27.75,11.01 -32.34,13.7 -57.88,24.55 -90.82,2.27 -34.85,-23.56 -69.62,-29.99 -100.47,-18.6 -12.27,4.5 -23.66,10.77 -34.66,16.81 -9.48,5.19 -18.44,10.1 -27.9,14.02 -30.63,12.61 -45.05,3.58 -66.87,-10.05 -8.93,-5.61 -19.06,-11.97 -31.33,-17.15 -20.1,-8.45 -45.49,-10.6 -69.55,-5.84 -18.69,3.68 -33.35,12.79 -47.5,21.62 -10.01,6.23 -19.47,12.12 -30.24,16.18 -25.68,9.62 -45.39,-3.19 -68.23,-18.06 -18.32,-11.94 -37.28,-24.28 -60.74,-25.14 -0.82,-0.01 -1.66,-0.03 -2.48,-0.03 -24.06,0 -45.78,12.55 -66.8,24.69 -25.79,14.9 -50.17,28.95 -75.55,17.75 -9.19,-4.07 -17.63,-9.63 -26.57,-15.53 -7.32,-4.82 -14.89,-9.81 -23.01,-13.98 -25.43,-13.11 -61.67,-12.73 -92.28,1.02 -7.45,3.35 -15.1,7.57 -22.93,11.91 -20.93,11.59 -42.52,23.65 -63.65,19.14 -14.57,-3.06 -27.4,-11.1 -40.98,-19.63 -18.02,-11.28 -36.66,-22.97 -60.49,-23.17 -27.01,-0.04 -47.39,11.5 -67.05,22.89 -15.9,9.18 -30.9,17.85 -48.89,19.99 -19.1,2.11 -34.86,-7.67 -51.493,-18.22 -8.609,-5.44 -17.501,-11.08 -27.214,-15.24 -27.582,-11.8 -58.43,-10.53 -89.244,3.69 -5.258,2.43 -10.45,5.06 -15.641,7.69 -11.89,5.99 -23.094,11.65 -35.118,15.03 -27.23,7.67 -49.269,-1.86 -72.631,-11.97 -22.458,-9.71 -45.685,-19.76 -74.289,-14.85 -16.546,2.84 -32.255,9.32 -47.444,15.59 -25.706,10.6 -50.006,20.65 -76.281,12.87 -12.343,-3.63 -23.932,-9.22 -36.191,-15.15 -10.131,-4.89 -20.615,-9.95 -31.618,-13.83 -35.436,-12.51 -65.128,0.06 -93.865,12.19 -23.011,9.73 -44.647,18.82 -69.265,15.67 -17.551,-2.36 -32.506,-9.68 -48.332,-17.43 -19.426,-9.5 -39.505,-19.33 -64.592,-19.33 -4.739,0 -8.574,3.84 -8.574,8.58"
       style="fill:#1cabf2;fill-opacity:1;fill-rule:nonzero;stroke:none;stroke-width:0.1"
       id="path2203" /><path
       d="m 2800.61,888.9 -1.58,-1.27 c -16.18,-12.97 -34.54,-27.66 -56.02,-34.42 -31.72,-9.97 -60.97,9.41 -75.88,33.02 -7.3,11.55 -11.71,25.06 -12.8,39.08 -0.76,9.89 -2.01,14.78 -7.41,17.6 -10.88,5.63 -29.15,-7.78 -41.24,-16.67 -3.1,-2.28 -5.97,-4.39 -8.49,-6.07 -10.73,-7.15 -21.17,-15.34 -31.26,-23.25 -9.29,-7.28 -18.6,-14.55 -28.3,-21.27 -23.37,-16.16 -45.64,-23.51 -66.22,-22.04 -24.67,1.86 -44.47,17.64 -54.37,43.35 -1.92,4.97 -2.79,11.64 -3.73,18.71 -1.2,9.02 -3.19,24.11 -7.92,26.5 -3.79,1.93 -9.35,1.56 -17.02,-1.06 -22.41,-7.66 -40.36,-22.78 -59.37,-38.8 -17.76,-14.94 -36.12,-30.41 -58.69,-39.61 -22.27,-9.11 -44.95,-9.98 -63.76,-2.39 -18.6,7.48 -31.59,23.1 -36.56,43.98 -0.96,4.05 -1.41,8.73 -1.82,13.56 -0.97,11.58 -2.06,19.41 -7.81,22.75 -4.46,2.59 -11.05,2.54 -19.77,-0.11 -23.08,-7.12 -42.61,-24.19 -61.51,-40.7 -22.54,-19.66 -44.2,-37.19 -70.75,-43.86 -19.93,-4.99 -38.62,-2.47 -54.22,7.18 -17.68,10.94 -30.37,30.44 -35.75,54.9 l -1.52,7.3 c -1.55,7.66 -3.02,14.9 -5.45,16.43 -1.31,0.82 -5.23,1.78 -16.79,-1.15 -20.37,-5.09 -38.13,-18.99 -52.83,-31.9 l -7.38,-6.54 c -27.25,-24.32 -57.9,-52.07 -99.4,-47.28 -31.36,3.51 -53.35,25.15 -60.37,59.35 -0.51,2.54 -0.91,5.62 -1.34,8.93 -0.94,7.42 -2.35,18.61 -6.34,21.6 -0.4,0.3 -1.42,1.08 -4.4,0.63 -11.8,-1.86 -23.46,-9.65 -34.73,-17.2 -3.61,-2.41 -7.14,-4.78 -10.61,-6.9 -11.95,-7.37 -23.19,-16.46 -34.03,-25.25 -12.45,-10.06 -25.34,-20.49 -39.82,-28.85 -21.82,-12.57 -44.92,-16.87 -65.08,-12.14 -23.62,5.52 -43.7,25.27 -49.99,49.17 -1.29,4.82 -1.37,10.77 -1.47,17.07 -0.18,12.39 -0.76,22.75 -6.15,24.04 -4.25,1.03 -11.63,-2.31 -16.51,-4.52 -12.19,-5.52 -23.44,-13.48 -34.33,-21.19 l -3.83,-2.7 c -8.18,-5.75 -16.13,-12.08 -24.1,-18.42 -15.77,-12.54 -32.06,-25.51 -50.63,-34.54 -13.32,-6.46 -33.73,-13.16 -55.25,-8.53 -21.91,4.74 -41.04,22.11 -48.72,44.24 -1.76,5.11 -2.44,11.37 -3.15,17.99 -1.12,10.48 -2.52,23.53 -8.65,25.89 -7.35,2.76 -28.52,-9.3 -35.46,-13.3 l -2.45,-1.42 c -17.09,-9.75 -32.89,-22.59 -48.18,-34.99 l -8.17,-6.63 c -14.3,-11.5 -33.61,-25.41 -56.17,-31.04 -24.33,-6 -49.297,-0.81 -65.131,13.76 -16.312,15.02 -20.908,36.92 -22.952,52.08 -0.28,2.01 -0.477,4.14 -0.692,6.29 -0.494,5.31 -1.268,13.35 -3.624,15.06 -0.94,0.71 -3.246,0.71 -6.114,0.07 -29.575,-6.54 -54.422,-26.26 -78.444,-45.33 l -10.348,-8.27 C 813.65,870.4 783.58,846.29 749.078,851.94 c -18.338,3.03 -35.193,14.7 -46.249,32 -6.41,10.02 -10.825,21.8 -13.132,34.98 -0.577,3.26 -0.758,6.75 -0.94,10.3 -0.23,5.09 -0.461,9.9 -2.125,13.21 -0.807,1.62 -1.796,2.37 -3.575,2.75 -9.722,2.05 -34.815,-6.57 -98.415,-59.46 l -5.256,-4.33 C 539.793,849.49 503.116,843 476.094,863.1 458.283,876.38 446.239,899 443.042,925.15 l -0.263,2.19 c -0.725,6.11 -1.813,15.34 -4.811,17.51 -1.022,0.78 -2.949,0.58 -4.432,0.28 -9.326,-1.84 -18.273,-6.85 -28.159,-12.72 -16.328,-9.67 -32.887,-21.5 -50.649,-36.18 -19.393,-16.03 -41.373,-34.19 -69.531,-43.04 -6.509,-2.04 -12.984,-3.06 -19.311,-3.06 -10.166,0 -19.936,2.64 -28.9,7.86 -19.426,11.3 -34.601,34.58 -40.565,62.28 -0.989,4.55 1.911,9.05 6.459,10.02 4.547,0.94 9.062,-1.9 10.017,-6.46 4.927,-22.8 17.4,-42.44 32.575,-51.26 10.495,-6.11 22.144,-7.17 34.683,-3.28 24.995,7.86 44.734,24.17 63.83,39.96 18.437,15.24 35.705,27.56 52.791,37.68 10.826,6.43 21.552,12.39 33.497,14.75 6.904,1.43 12.835,0.31 17.63,-3.18 8.947,-6.51 10.43,-19.08 11.633,-29.18 l 0.247,-2.13 c 2.652,-21.6 12.275,-40.02 26.395,-50.57 27.351,-20.33 63.501,2.48 82.63,17.91 l 5.042,4.17 c 38.736,32.21 86.601,68.53 112.683,62.99 6.821,-1.43 12.078,-5.48 15.192,-11.71 3.246,-6.49 3.592,-13.65 3.888,-19.96 0.132,-2.81 0.247,-5.6 0.692,-8.18 1.928,-10.99 5.553,-20.68 10.743,-28.82 8.354,-13.07 21.354,-22.21 34.782,-24.44 27.285,-4.43 52.758,16.17 75.348,34.37 l 10.429,8.36 c 25.522,20.25 51.918,41.21 85.283,48.59 8.024,1.74 14.631,0.79 19.689,-2.9 8.519,-6.18 9.573,-17.3 10.512,-27.11 0.181,-1.94 0.363,-3.84 0.594,-5.65 2.702,-19.97 8.32,-33.28 17.679,-41.9 11.699,-10.79 30.716,-14.58 49.606,-9.8 19.27,4.81 35.92,16.75 49.68,27.81 l 8.11,6.57 c 15.82,12.84 32.18,26.12 50.47,36.57 l 2.37,1.36 c 16.92,9.76 36.2,19.78 49.96,14.44 15.75,-6.07 17.76,-24.78 19.36,-39.84 0.61,-5.64 1.18,-10.98 2.32,-14.26 5.78,-16.69 20.05,-29.77 36.33,-33.29 16.87,-3.65 33.4,1.91 44.31,7.21 16.88,8.24 32.45,20.61 47.51,32.59 8.23,6.54 16.45,13.07 24.88,19.02 l 3.81,2.67 c 11.53,8.15 23.45,16.59 36.89,22.67 7.63,3.47 17.76,8.09 27.65,5.67 18.53,-4.47 18.86,-25.97 19.06,-40.21 0.08,-4.99 0.15,-10.16 0.91,-13.03 4.74,-18.01 19.82,-32.89 37.53,-37.02 15.9,-3.76 34.72,-0.07 52.79,10.34 13.33,7.68 25.15,17.24 37.65,27.34 11.25,9.13 22.9,18.55 35.79,26.49 3.29,2.03 6.65,4.27 10.07,6.56 12.21,8.16 26.03,17.42 41.48,19.85 8.39,1.32 13.91,-1.35 17.17,-3.8 9.71,-7.28 11.5,-21.54 12.95,-32.97 0.37,-2.85 0.68,-5.49 1.14,-7.66 3.2,-15.62 13.38,-42.36 45.71,-45.97 33.82,-3.71 60.46,20.07 86.28,43.08 l 7.48,6.64 c 15.28,13.42 35.87,29.58 59.88,35.59 14.25,3.55 23.2,3.25 29.89,-0.95 8.53,-5.39 10.49,-15.08 12.97,-27.35 l 1.46,-7.02 c 4.4,-19.97 14.4,-35.66 28.16,-44.19 11.81,-7.3 25.67,-9.05 41.24,-5.14 22.94,5.75 42.07,21.27 62.91,39.46 21.06,18.39 41.96,36.66 68.48,44.83 13.29,4.17 24.51,3.66 33.21,-1.4 13.79,-8.01 15.09,-23.48 16.17,-35.92 0.33,-3.95 0.61,-7.78 1.4,-11.09 2.6,-10.89 9.29,-25.32 26.44,-32.23 14.55,-5.86 33.17,-5 51.1,2.36 20.11,8.21 36.66,22.15 54.19,36.91 19.36,16.29 39.38,33.17 64.78,41.85 12.11,4.15 21.95,4.22 30.04,0.16 12.72,-6.39 15.04,-23.9 17.09,-39.36 0.77,-5.78 1.56,-11.76 2.75,-14.88 4.38,-11.37 15.39,-30.73 39.87,-32.55 16.67,-1.22 35.26,5.19 55.38,19.08 9.42,6.52 18.45,13.6 27.48,20.67 10.35,8.11 21.04,16.5 32.31,24.01 2.33,1.55 4.98,3.51 7.84,5.62 15.46,11.38 38.87,28.54 59.06,18.04 14.6,-7.63 15.75,-22.42 16.42,-31.26 0.88,-11.3 4.42,-22.14 10.25,-31.38 11.47,-18.16 33.35,-33.19 56.55,-25.94 18.47,5.82 34.77,18.88 50.52,31.5 l 1.6,1.29 c 3.62,2.87 8.94,2.31 11.86,-1.32 2.9,-3.64 2.32,-8.94 -1.32,-11.86"
       style="fill:#1cabf2;fill-opacity:1;fill-rule:nonzero;stroke:none;stroke-width:0.1"
       id="path2205" /></g></svg>
