<?xml version="1.0" encoding="UTF-8"?>
<!-- Uploaded to: SVG Repo, www.svgrepo.com, Generator: SVG Repo Mixer Tools -->
<svg width="800px" height="800px" version="1.1" viewBox="0 0 20 20" xmlns="http://www.w3.org/2000/svg">
 <path d="m20 9.787c0-1.2047-1.0344-2.1844-2.3044-2.1844-0.55025 0-1.065 0.19082-1.4803 0.5246-0.013404 0.0078362-0.027256 0.015249-0.040436 0.023297-1.4984-0.90879-3.4854-1.4891-5.6832-1.5679l1.3118-3.5364 3.2742 0.74211c0.0026809 0.98122 0.8447 1.779 1.8811 1.779 1.0371 0 1.8815-0.79993 1.8815-1.7835 0-0.98397-0.84448-1.7839-1.8815-1.7839-0.7884 0-1.462 0.46212-1.7412 1.114l-3.8792-0.87892-1.611 4.3396c-2.2919 0.040875-4.3689 0.6288-5.9232 1.5681-0.41844-0.34416-0.94054-0.54027-1.5008-0.54027-1.2705 0-2.3033 0.97995-2.3033 2.1844 0 0.74507 0.40548 1.4334 1.0625 1.8341-0.03999 0.21708-0.065458 0.43713-0.065458 0.66142 0 3.1527 4.0309 5.7177 8.9852 5.7177 4.9552 0 8.9863-2.565 8.9863-5.7177 0-0.21751-0.023011-0.43141-0.060766-0.64278 0.67469-0.39774 1.0922-1.096 1.0922-1.8525zm-6.9622 2.828c-0.78192 0-1.4151-0.60021-1.4151-1.3423 0-0.74084 0.63313-1.3415 1.4151-1.3415 0.78192 0 1.4162 0.60063 1.4162 1.3415 0 0.74211-0.63447 1.3423-1.4162 1.3423zm0.28172 2.2886c-0.042447 0.041087-1.0574 1.021-3.3531 1.021-2.3085 0-3.2311-0.99308-3.2698-1.0359-0.12935-0.14338-0.1117-0.36068 0.039766-0.48351 0.15125-0.12178 0.378-0.10611 0.50892 0.035157 0.020553 0.022026 0.79086 0.79866 2.7211 0.79866 1.9624 0 2.8236-0.80437 2.8328-0.81221 0.13851-0.1347 0.36773-0.13724 0.51026-0.0057182 0.14231 0.1311 0.14745 0.34543 0.010053 0.48245zm-7.607-3.6309c0-0.74084 0.63291-1.3415 1.4162-1.3415 0.78058 0 1.4151 0.60063 1.4151 1.3415 0 0.74211-0.63447 1.3423-1.4151 1.3423-0.78304 0-1.4162-0.60021-1.4162-1.3423z" fill-rule="evenodd"/>
</svg>
