<?xml version="1.0" encoding="UTF-8" standalone="no"?>
<!-- Created with Inkscape (http://www.inkscape.org/) -->

<svg
   width="39.253292mm"
   height="10.578764mm"
   viewBox="0 0 39.253292 10.578764"
   version="1.1"
   id="svg5"
   inkscape:version="1.1.2 (0a00cf5339, 2022-02-04)"
   sodipodi:docname="tides-of-sea-logo.svg"
   xmlns:inkscape="http://www.inkscape.org/namespaces/inkscape"
   xmlns:sodipodi="http://sodipodi.sourceforge.net/DTD/sodipodi-0.dtd"
   xmlns="http://www.w3.org/2000/svg"
   xmlns:svg="http://www.w3.org/2000/svg">
  <sodipodi:namedview
     id="namedview7"
     pagecolor="#ffffff"
     bordercolor="#666666"
     borderopacity="1.0"
     inkscape:pageshadow="2"
     inkscape:pageopacity="0.0"
     inkscape:pagecheckerboard="0"
     inkscape:document-units="mm"
     showgrid="false"
     showguides="true"
     inkscape:zoom="3.5830314"
     inkscape:cx="79.122946"
     inkscape:cy="54.84183"
     inkscape:window-width="1920"
     inkscape:window-height="1200"
     inkscape:window-x="0"
     inkscape:window-y="0"
     inkscape:window-maximized="1"
     inkscape:current-layer="text48100-1"
     fit-margin-top="0"
     fit-margin-left="0"
     fit-margin-right="0"
     fit-margin-bottom="0" />
  <defs
     id="defs2">
    <rect
       x="69.847969"
       y="144.49435"
       width="613.0636"
       height="149.62775"
       id="rect2871" />
    <rect
       x="69.847969"
       y="144.49435"
       width="613.0636"
       height="149.62775"
       id="rect2871-3" />
    <rect
       x="69.847969"
       y="144.49435"
       width="613.0636"
       height="149.62775"
       id="rect2871-3-7" />
    <rect
       x="69.847969"
       y="144.49435"
       width="613.0636"
       height="149.62775"
       id="rect2871-3-7-3" />
    <rect
       x="69.847969"
       y="144.49435"
       width="613.0636"
       height="149.62775"
       id="rect2871-3-7-5" />
    <rect
       x="69.847969"
       y="144.49435"
       width="613.0636"
       height="149.62775"
       id="rect2871-3-7-2" />
  </defs>
  <g
     inkscape:label="Layer 1"
     inkscape:groupmode="layer"
     id="layer1"
     transform="translate(-18.83028,-75.054812)">
    <g
       aria-label="Tides of Sea"
       id="text48100-1"
       style="font-size:10.5833px;line-height:1.25;letter-spacing:0px;stroke-width:0.264583">
      <path
         d="m 22.851934,76.539876 q -0.02117,0.05292 0.02117,0.116416 0.04233,0.0635 0.08467,0.137583 0.04233,0.07408 0.05292,0.15875 0.02117,0.07408 -0.03175,0.148166 -0.613832,1.142996 -1.111247,2.497659 -0.497415,1.344079 -1.005413,3.069156 -0.03175,0.116417 -0.0635,0.211666 -0.02117,0.09525 -0.05292,0.1905 -0.03175,0.09525 -0.07408,0.211666 -0.03175,0.116416 -0.07408,0.275166 -0.0635,0.137582 -0.169332,0.08467 -0.148167,-0.0635 -0.201083,-0.317499 -0.05292,-0.243416 -0.0635,-0.539748 -0.01058,-0.296333 0.01058,-0.560915 0.02117,-0.275166 0.04233,-0.380999 0.09525,-0.603248 0.275165,-1.291163 0.179916,-0.698497 0.433916,-1.386412 0.253999,-0.687914 0.560915,-1.322912 0.317499,-0.645582 0.687914,-1.164163 0.05292,-0.05292 0.0635,-0.07408 -0.07408,-0.03175 -0.359832,-0.01058 -0.285749,0.01058 -0.634998,0.05292 -0.338666,0.03175 -0.677332,0.09525 -0.328082,0.05292 -0.497415,0.105833 0.04233,0.05292 0.179916,0.169332 0.137583,0.116417 0.254,0.232833 0.126999,0.116416 0.148166,0.211666 0.03175,0.08467 -0.148166,0.08467 -0.243416,0 -0.476249,-0.05292 -0.222249,-0.0635 -0.423332,-0.169333 -0.105833,-0.05292 -0.243416,-0.116416 -0.126999,-0.07408 -0.243416,-0.148166 -0.116416,-0.08467 -0.201082,-0.179916 -0.08467,-0.09525 -0.08467,-0.211666 0,-0.296333 0.285749,-0.444499 0.613832,-0.296332 1.513412,-0.455082 0.899581,-0.158749 1.904994,-0.190499 1.015997,-0.04233 2.042577,0.03175 1.037163,0.07408 1.904994,0.232832 0.05292,0.01058 0.158749,0.05292 0.116417,0.04233 0.243416,0.105833 0.127,0.0635 0.243416,0.137583 0.116417,0.0635 0.169333,0.137582 0.0635,0.0635 0.03175,0.116417 -0.02117,0.05292 -0.169333,0.07408 -0.148166,0.02117 -0.296332,0.02117 -0.148166,0 -0.296333,0 -0.93133,0 -1.873244,0 -0.93133,0 -1.841494,0.05292 z"
         style="font-family:'Tahu!';-inkscape-font-specification:'Tahu!'"
         id="path20732" />
      <path
         d="m 25.243741,80.889612 0.126999,-0.127 h 0.01058 v 0.02117 q 0.02117,0.243416 -0.04233,0.370416 -0.0635,0.116416 -0.0635,0.126999 -0.105832,0.15875 -0.285749,0.412749 -0.179916,0.243416 -0.380998,0.507998 -0.1905,0.253999 -0.370416,0.476249 -0.179916,0.211666 -0.285749,0.306915 -0.127,0.148167 -0.275166,0.275166 -0.05292,0.04233 -0.148166,0.07408 -0.08467,0.03175 -0.179916,0.04233 -0.09525,0.02117 -0.190499,0.01058 -0.08467,-0.01058 -0.137583,-0.05292 -0.179916,-0.116416 -0.275166,-0.275166 -0.105833,-0.169332 -0.105833,-0.359832 -0.03175,-0.582081 0.105833,-1.185329 0.126999,-0.613832 0.306916,-1.111247 0.05292,-0.148166 0.148166,-0.306915 0.09525,-0.09525 0.222249,-0.05292 0.127,0.04233 0.222249,0.179916 0.105833,0.127 0.148167,0.317499 0.05292,0.1905 -0.01058,0.380999 -0.05292,0.179916 -0.09525,0.349249 -0.04233,0.158749 -0.09525,0.338665 -0.02117,0.08467 -0.07408,0.243416 -0.04233,0.15875 -0.09525,0.338666 -0.05292,0.169333 -0.09525,0.328082 -0.04233,0.15875 -0.05292,0.243416 -0.02117,0.15875 0.08467,0.08467 0.105833,-0.07408 0.285749,-0.254 0.433916,-0.444498 0.825498,-0.857247 0.391582,-0.423332 0.772581,-0.846664 z m -1.481662,-1.269996 q -0.07408,0.07408 -0.105833,0 -0.137583,-0.211666 -0.179916,-0.444498 -0.04233,-0.232833 0.04233,-0.465666 0.04233,-0.137583 0.179916,-0.222249 0.148166,-0.09525 0.264582,-0.0635 0.0635,0.02117 0.137583,0.07408 0.07408,0.04233 0.09525,0.105833 0.07408,0.285749 -0.08467,0.550332 -0.148167,0.264582 -0.349249,0.465665 z"
         style="font-family:'Tahu!';-inkscape-font-specification:'Tahu!'"
         id="path20729" />
      <path
         d="m 27.286299,80.191114 q 0,-0.02117 0.01058,-0.03175 0,-0.01058 0.01058,-0.01058 0.328082,-0.698498 0.645581,-1.344079 0.328082,-0.656165 0.656165,-1.259413 0.338665,-0.603248 0.698497,-1.164163 0.370416,-0.560914 0.783165,-1.090079 0.232832,-0.264583 0.370415,-0.232833 0.148166,0.03175 0.211666,0.222249 0.07408,0.179916 0.08467,0.433916 0.01058,0.253999 -0.01058,0.412748 -0.158749,0.656165 -0.433915,1.312329 -0.264583,0.656165 -0.603248,1.31233 -0.338666,0.645581 -0.730248,1.291162 -0.391582,0.645581 -0.793747,1.291163 -0.05292,0.0635 -0.08467,0.137583 -0.02117,0.0635 -0.04233,0.148166 -0.02117,0.09525 -0.05292,0.275166 -0.02117,0.169332 -0.03175,0.359832 0,0.190499 0.03175,0.349249 0.03175,0.158749 0.116417,0.201082 0.126999,0.0635 0.370415,-0.02117 0.243416,-0.09525 0.518582,-0.275166 0.275166,-0.179916 0.550332,-0.412749 0.285749,-0.232832 0.486831,-0.444498 0.02117,-0.02117 0.0635,0.01058 0.04233,0.02117 0.0635,0.07408 0.03175,0.05292 0.02117,0.127 0,0.0635 -0.07408,0.126999 -0.243415,0.211666 -0.603248,0.539749 -0.349249,0.317499 -0.740831,0.592664 -0.380998,0.275166 -0.751414,0.412749 -0.370415,0.148166 -0.634998,0.01058 -0.243416,-0.126999 -0.349249,-0.412748 -0.09525,-0.275166 -0.105833,-0.603248 -0.01058,-0.338666 0.02117,-0.656165 0.04233,-0.328082 0.07408,-0.518582 -0.02117,0.02117 -0.04233,0.0635 -0.01058,0.03175 -0.03175,0.0635 -0.148166,0.169333 -0.338666,0.412749 -0.190499,0.232832 -0.423332,0.433915 -0.222249,0.201083 -0.476248,0.306916 -0.253999,0.105833 -0.518582,0.01058 -0.148166,-0.08467 -0.253999,-0.201083 -0.116416,-0.126999 -0.116416,-0.328082 0,-0.391582 0.158749,-0.793748 0.148166,-0.402165 0.412749,-0.709081 0.264582,-0.317499 0.624414,-0.497415 0.359833,-0.190499 0.772581,-0.158749 0.116417,0.02117 0.232833,0.0635 0.127,0.03175 0.211666,0.127 z m 3.090324,-3.682988 q -0.666748,1.02658 -1.18533,2.106077 -0.518582,1.079496 -0.910164,2.233076 0.243416,-0.444499 0.571498,-1.015997 0.338666,-0.571498 0.656165,-1.164163 0.317499,-0.603248 0.560915,-1.164163 0.243416,-0.571498 0.306916,-0.99483 z m -4.751902,5.281067 0.02117,0.03175 q 0.359832,-0.285749 0.719664,-0.560914 0.370416,-0.28575 0.761998,-0.560915 -0.22225,-0.105833 -0.486832,-0.02117 -0.253999,0.07408 -0.486832,0.264583 -0.222249,0.179916 -0.380999,0.423332 -0.148166,0.232832 -0.148166,0.423332 z"
         style="font-family:'Tahu!';-inkscape-font-specification:'Tahu!'"
         id="path20726" />
      <path
         d="m 29.68869,82.180775 q -0.02117,-0.402166 0.08467,-0.836081 0.105833,-0.433915 0.317499,-0.793748 0.211666,-0.370415 0.529165,-0.603248 0.328082,-0.232832 0.761998,-0.243415 0.222249,0.05292 0.338665,0.222249 0.127,0.169333 0.07408,0.412748 -0.04233,0.232833 -0.126999,0.402166 -0.07408,0.158749 -0.264583,0.338665 -0.09525,0.08467 -0.264582,0.22225 -0.169333,0.137583 -0.328083,0.285749 -0.158749,0.148166 -0.275165,0.306916 -0.116417,0.148166 -0.116417,0.253999 -0.03175,0.275166 0.08467,0.359832 0.116416,0.07408 0.296332,0.0635 0.190499,-0.02117 0.380999,-0.105833 0.190499,-0.08467 0.306916,-0.148166 0.137582,-0.09525 0.306915,-0.232833 0.169333,-0.148166 0.338666,-0.306916 0.169333,-0.158749 0.328082,-0.306915 0.15875,-0.148167 0.264583,-0.243416 0.08467,-0.08467 0.148166,-0.15875 0.07408,-0.07408 0.169333,-0.126999 0.08467,-0.02117 0.126999,-0.01058 0.05292,0.01058 -0.01058,0.15875 -0.08467,0.179916 -0.211666,0.338665 -0.116416,0.15875 -0.253999,0.317499 -0.1905,0.211666 -0.412749,0.444499 -0.211666,0.232833 -0.455082,0.433915 -0.232832,0.1905 -0.497415,0.338666 -0.253999,0.137583 -0.529165,0.179916 -0.486832,0.03175 -0.804331,-0.201083 Q 29.68869,82.70994 29.68869,82.180775 Z m 1.693328,-1.989661 q -0.28575,0.105833 -0.455082,0.275166 -0.15875,0.169333 -0.232833,0.497415 0.232833,-0.169333 0.412749,-0.338665 0.190499,-0.179917 0.275166,-0.433916 z"
         style="font-family:'Tahu!';-inkscape-font-specification:'Tahu!'"
         id="path20723" />
      <path
         d="m 33.392832,81.895026 q -0.211666,-0.296333 -0.423332,-0.603249 -0.201082,-0.306915 -0.201082,-0.677331 0,-0.412748 0.232832,-0.772581 0.243416,-0.370415 0.550332,-0.592664 0.126999,-0.08467 0.253999,-0.137583 0.137583,-0.05292 0.285749,0.01058 0.0635,0.03175 0.127,0.05292 0.07408,0.01058 0.126999,0.03175 0.05292,0.02117 0.116417,0.0635 0.0635,0.04233 0.0635,0.116417 0,0.296332 0.01058,0.486831 0.02117,0.179916 0.05292,0.317499 0.03175,0.127 0.0635,0.232833 0.03175,0.09525 0.0635,0.211666 0.02117,0.105833 -0.01058,0.179916 -0.03175,0.07408 -0.158749,0.02117 -0.232833,-0.08467 -0.349249,-0.338666 -0.105833,-0.253999 -0.158749,-0.465665 -0.01058,-0.04233 -0.05292,-0.148166 -0.04233,-0.105833 -0.05292,-0.148167 -0.08467,-0.02117 -0.201083,0.0635 -0.116416,0.07408 -0.211666,0.211666 -0.08467,0.137583 -0.116416,0.317499 -0.02117,0.179916 0.07408,0.359832 0.04233,0.0635 0.116416,0.15875 0.08467,0.08467 0.158749,0.179916 0.08467,0.09525 0.15875,0.190499 0.08467,0.08467 0.137583,0.137583 0.0635,0.0635 0.08467,0.07408 0.02117,0 0.105833,-0.03175 0.105833,-0.05292 0.317499,-0.137582 0.222249,-0.08467 0.455082,-0.169333 0.243416,-0.08467 0.455082,-0.137583 0.222249,-0.0635 0.338666,-0.0635 0.07408,0 0.105833,0.05292 0.03175,0.03175 -0.01058,0.08467 -0.04233,0.05292 -0.116416,0.105833 -0.0635,0.05292 -0.137583,0.09525 -0.07408,0.04233 -0.09525,0.05292 -0.179916,0.105833 -0.455082,0.243416 -0.275165,0.127 -0.476248,0.253999 -0.02117,0.02117 -0.08467,0.04233 -0.05292,0.02117 -0.08467,0.04233 0.127,0.285749 0.179916,0.497415 0.05292,0.201082 0.03175,0.391582 -0.01058,0.190499 -0.07408,0.380999 -0.0635,0.201082 -0.169333,0.455081 -0.148166,0.243416 -0.306915,0.465666 -0.148167,0.222249 -0.338666,0.402165 -0.190499,0.179916 -0.412749,0.285749 -0.222249,0.105833 -0.486831,0.105833 -0.148167,0 -0.28575,-0.04233 -0.137582,-0.03175 -0.232832,-0.148166 -0.243416,-0.264583 -0.275166,-0.582082 -0.03175,-0.306915 0.05292,-0.613831 0.0635,-0.1905 0.158749,-0.349249 0.232833,-0.402165 0.507998,-0.677331 0.28575,-0.285749 0.592665,-0.539748 z m 0.359832,0.476248 q -0.116416,0.116416 -0.317499,0.338666 -0.201082,0.211666 -0.380998,0.465665 -0.169333,0.253999 -0.275166,0.497415 -0.116416,0.253999 -0.0635,0.433915 0.211666,-0.09525 0.433915,-0.317499 0.22225,-0.211666 0.391582,-0.476248 0.169333,-0.254 0.232833,-0.507999 0.07408,-0.253999 -0.02117,-0.433915 z"
         style="font-family:'Tahu!';-inkscape-font-specification:'Tahu!'"
         id="path20720" />
      <path
         d="m 40.028531,81.037778 q 0.126999,-0.01058 0.275166,-0.0635 0.148166,-0.05292 0.275165,-0.08467 0.148167,-0.04233 0.306916,-0.09525 0.169333,-0.0635 0.317499,-0.09525 0.105833,0 0.08467,0.0635 -0.02117,0.05292 -0.105833,0.137583 -0.07408,0.07408 -0.179916,0.148167 -0.09525,0.07408 -0.148166,0.105833 -0.253999,0.116416 -0.507998,0.179916 -0.243416,0.0635 -0.465665,0.179916 -0.09525,0.169333 -0.264583,0.455082 -0.169333,0.275165 -0.380999,0.539748 -0.201082,0.264582 -0.433915,0.455082 -0.222249,0.190499 -0.433915,0.190499 -0.296333,0 -0.507999,-0.169333 -0.158749,-0.105833 -0.232832,-0.328082 -0.08467,-0.222249 -0.09525,-0.476248 -0.02117,-0.264583 0.01058,-0.507999 0.03175,-0.253999 0.07408,-0.412748 0.01058,-0.07408 0.03175,-0.09525 0.02117,-0.03175 0.04233,-0.04233 0.02117,-0.01058 0.05292,-0.02117 0.02117,-0.01058 0.04233,-0.04233 0.03175,-0.116416 0.0635,-0.243416 0.03175,-0.127 0.09525,-0.232833 0.179916,-0.317499 0.455082,-0.582081 0.285749,-0.275166 0.656164,-0.317499 0.232833,-0.04233 0.423332,0.02117 0.201083,0.0635 0.349249,0.243415 0.127,0.137583 0.179916,0.306916 0.05292,0.15875 0.0635,0.317499 0.01058,0.148166 -0.01058,0.275166 -0.02117,0.126999 -0.03175,0.190499 z m -0.603248,0.105833 q 0.02117,0 0.04233,-0.02117 0.02117,-0.02117 0.02117,-0.04233 0.08467,-0.201082 0.07408,-0.444498 0,-0.243416 -0.148167,-0.391582 -0.07408,-0.08467 -0.190499,-0.09525 -0.116416,-0.01058 -0.222249,0.04233 -0.211666,0.127 -0.338666,0.296333 -0.126999,0.169332 -0.243416,0.349249 0,0.05292 0.02117,0.07408 0.105833,0.09525 0.09525,0.211666 0,0.05292 0.116416,0.0635 0.126999,0.01058 0.275166,0.01058 0.158749,-0.01058 0.296332,-0.03175 0.148166,-0.02117 0.201083,-0.02117 z m -0.941914,1.629828 q 0.105833,-0.02117 0.232833,-0.148166 0.137583,-0.137583 0.253999,-0.306915 0.126999,-0.169333 0.211666,-0.338666 0.09525,-0.179916 0.126999,-0.296332 -0.211666,0.02117 -0.455081,0.02117 -0.243416,0 -0.455082,-0.04233 -0.03175,0.09525 -0.04233,0.253999 -0.01058,0.148166 0,0.317499 0.01058,0.15875 0.04233,0.306916 0.03175,0.148166 0.08467,0.232832 z"
         style="font-family:'Tahu!';-inkscape-font-specification:'Tahu!'"
         id="path20717" />
      <path
         d="m 41.848847,81.387027 q 0.529165,0.137583 1.037163,0.127 0.507999,-0.02117 1.047747,-0.0635 0.105833,0 0.09525,0.05292 -0.01058,0.04233 -0.03175,0.05292 -0.486832,0.264582 -0.973664,0.338666 -0.476248,0.07408 -1.005413,-0.04233 0.05292,0.285749 0.08467,0.656165 0.04233,0.370415 0.03175,0.761997 0,0.402166 -0.04233,0.783165 -0.04233,0.391582 -0.148166,0.709081 -0.09525,0.328082 -0.264583,0.560915 -0.158749,0.232832 -0.391582,0.306915 -0.179916,0.01058 -0.338666,-0.02117 -0.169332,-0.03175 -0.264582,-0.211666 -0.243416,-0.476249 -0.232833,-0.963081 0,-0.486831 0.04233,-0.96308 0.126999,-0.888997 0.359832,-1.799161 0.222249,-0.910164 0.529165,-1.767411 0.306915,-0.86783 0.677331,-1.640411 0.380999,-0.772581 0.814914,-1.396996 0.09525,-0.116416 0.211666,-0.201082 0.116416,-0.09525 0.275166,-0.07408 0.148166,0 0.222249,0.116417 0.08467,0.105833 0.03175,0.243416 v 0.169332 q 0,0.275166 -0.02117,0.571499 -0.01058,0.296332 -0.09525,0.582081 -0.254,0.920747 -0.687915,1.650995 -0.433915,0.719664 -0.952497,1.407579 0,0.02117 -0.01058,0.05292 z m 0.105833,-0.656164 q 0.264582,-0.317499 0.507998,-0.740831 0.243416,-0.433916 0.433916,-0.888998 0.201082,-0.465665 0.338665,-0.920747 0.137583,-0.455082 0.201083,-0.846664 -0.1905,0.243416 -0.423332,0.719665 -0.222249,0.476248 -0.433915,0.99483 -0.211666,0.518582 -0.380999,0.984247 -0.169333,0.465665 -0.243416,0.698498 z m -0.751414,3.714738 q 0.09525,0.03175 0.169332,-0.116417 0.08467,-0.137582 0.137583,-0.380998 0.05292,-0.243416 0.07408,-0.550332 0.03175,-0.296332 0.03175,-0.571498 0.01058,-0.285749 -0.02117,-0.497415 -0.02117,-0.222249 -0.07408,-0.296333 -0.116417,0.603249 -0.232833,1.18533 -0.105833,0.592665 -0.08467,1.227663 z"
         style="font-family:'Tahu!';-inkscape-font-specification:'Tahu!'"
         id="path20714" />
      <path
         d="m 47.796633,80.265197 q -0.391582,0.275166 -0.730247,0.677332 -0.338666,0.391582 -0.550332,0.793747 -0.211666,0.391582 -0.253999,0.719664 -0.03175,0.328083 0.190499,0.465666 0.179916,0.116416 0.507999,0.02117 0.328082,-0.105833 0.709081,-0.338665 0.380998,-0.243416 0.77258,-0.571499 0.402166,-0.338665 0.730248,-0.687914 0.328082,-0.349249 0.539748,-0.666748 0.211666,-0.328082 0.232833,-0.550332 0.03175,-0.232832 -0.09525,-0.391582 -0.126999,-0.169332 -0.359832,-0.285749 -0.222249,-0.126999 -0.507998,-0.211666 -0.285749,-0.09525 -0.582082,-0.169332 -0.285749,-0.08467 -0.550331,-0.169333 -0.264583,-0.08467 -0.444499,-0.201083 -0.201083,-0.127 -0.317499,-0.296332 -0.116416,-0.179916 -0.169333,-0.370416 -0.05292,-0.190499 -0.05292,-0.391582 0.01058,-0.201083 0.0635,-0.380999 0.08467,-0.349249 0.380998,-0.677331 0.306916,-0.328082 0.698498,-0.571498 0.391582,-0.253999 0.814914,-0.380999 0.423332,-0.137583 0.761998,-0.09525 0.317499,0.05292 0.529165,0.179917 0.211666,0.126999 0.317499,0.433915 0.07408,0.253999 0,0.539748 -0.07408,0.285749 -0.232833,0.550332 -0.148166,0.253999 -0.349249,0.476248 -0.201082,0.211666 -0.380998,0.328082 -0.08467,0.0635 -0.179917,0.09525 -0.09525,0.03175 -0.179916,0.04233 -0.08467,0.01058 -0.137583,-0.01058 -0.04233,-0.02117 -0.02117,-0.0635 0.126999,-0.222249 0.264582,-0.497415 0.148167,-0.275166 0.275166,-0.539748 0.127,-0.275166 0.211666,-0.507998 0.08467,-0.232833 0.105833,-0.370416 0.02117,-0.116416 -0.0635,-0.127 -0.07408,-0.01058 -0.190499,0.02117 -0.201083,0.0635 -0.486832,0.201083 -0.275166,0.137583 -0.550331,0.317499 -0.264583,0.169333 -0.476249,0.370415 -0.201083,0.1905 -0.243416,0.359832 -0.05292,0.105833 -0.03175,0.201083 0.03175,0.09525 0.08467,0.179916 0.0635,0.07408 0.137583,0.137583 0.08467,0.05292 0.148166,0.09525 0.285749,0.179916 0.571498,0.317499 0.285749,0.126999 0.550332,0.275166 0.275165,0.137582 0.529165,0.306915 0.253999,0.15875 0.476248,0.391582 0.338666,0.359833 0.423332,0.793748 0.09525,0.433915 -0.05292,0.857247 -0.169332,0.529165 -0.571498,1.047747 -0.391582,0.507998 -0.910163,0.89958 -0.518582,0.391582 -1.09008,0.603248 -0.560915,0.211666 -1.05833,0.148166 -0.507999,-0.07408 -0.825498,-0.338665 -0.317499,-0.264583 -0.423332,-0.740831 -0.08467,-0.423332 0.01058,-0.804331 0.09525,-0.380999 0.317499,-0.698498 0.222249,-0.317499 0.529165,-0.571498 0.306915,-0.253999 0.645581,-0.412749 0.201083,-0.105832 0.412749,-0.158749 0.211666,-0.0635 0.423332,-0.09525 0.201082,-0.04233 0.201082,0.02117 0,0.05292 -0.09525,0.148166 -0.09525,0.09525 -0.232833,0.201083 -0.127,0.09525 -0.169333,0.126999 z"
         style="font-family:'Tahu!';-inkscape-font-specification:'Tahu!'"
         id="path20711" />
      <path
         d="m 50.781105,82.180775 q -0.02117,-0.402166 0.08467,-0.836081 0.105833,-0.433915 0.317499,-0.793748 0.211666,-0.370415 0.529165,-0.603248 0.328082,-0.232832 0.761997,-0.243415 0.22225,0.05292 0.338666,0.222249 0.127,0.169333 0.07408,0.412748 -0.04233,0.232833 -0.127,0.402166 -0.07408,0.158749 -0.264582,0.338665 -0.09525,0.08467 -0.264583,0.22225 -0.169332,0.137583 -0.328082,0.285749 -0.158749,0.148166 -0.275166,0.306916 -0.116416,0.148166 -0.116416,0.253999 -0.03175,0.275166 0.08467,0.359832 0.116417,0.07408 0.296333,0.0635 0.190499,-0.02117 0.380999,-0.105833 0.190499,-0.08467 0.306915,-0.148166 0.137583,-0.09525 0.306916,-0.232833 0.169333,-0.148166 0.338666,-0.306916 0.169332,-0.158749 0.328082,-0.306915 0.158749,-0.148167 0.264582,-0.243416 0.08467,-0.08467 0.148167,-0.15875 0.07408,-0.07408 0.169332,-0.126999 0.08467,-0.02117 0.127,-0.01058 0.05292,0.01058 -0.01058,0.15875 -0.08467,0.179916 -0.211666,0.338665 -0.116417,0.15875 -0.254,0.317499 -0.190499,0.211666 -0.412748,0.444499 -0.211666,0.232833 -0.455082,0.433915 -0.232833,0.1905 -0.497415,0.338666 -0.253999,0.137583 -0.529165,0.179916 -0.486832,0.03175 -0.804331,-0.201083 -0.306916,-0.232832 -0.306916,-0.761997 z m 1.693328,-1.989661 q -0.285749,0.105833 -0.455082,0.275166 -0.158749,0.169333 -0.232832,0.497415 0.232832,-0.169333 0.412749,-0.338665 0.190499,-0.179917 0.275165,-0.433916 z"
         style="font-family:'Tahu!';-inkscape-font-specification:'Tahu!'"
         id="path20708" />
      <path
         d="m 55.141415,82.477107 q -0.09525,0.07408 -0.211666,0.169333 -0.116417,0.08467 -0.254,0.158749 -0.137583,0.0635 -0.296332,0.105833 -0.148166,0.03175 -0.317499,0 -0.127,-0.02117 -0.232833,-0.08467 -0.105833,-0.07408 -0.201082,-0.169333 -0.09525,-0.09525 -0.116417,-0.275166 -0.02117,-0.179916 -0.01058,-0.285749 0.05292,-0.275166 0.148166,-0.582081 0.09525,-0.306916 0.232833,-0.603248 0.232832,-0.486832 0.592665,-0.867831 0.359832,-0.380999 0.86783,-0.486832 0.169333,-0.04233 0.349249,-0.01058 0.1905,0.02117 0.328082,0.116416 0.137583,0.09525 0.211666,0.243416 0.07408,0.137583 0.03175,0.306916 -0.02117,0.0635 -0.05292,0.126999 -0.02117,0.0635 -0.0635,0.105833 -0.03175,0.04233 -0.0635,0.05292 -0.03175,0 -0.0635,-0.0635 -0.01058,-0.03175 -0.03175,-0.08467 -0.01058,-0.0635 -0.04233,-0.116417 -0.03175,-0.0635 -0.09525,-0.105833 -0.05292,-0.05292 -0.148167,-0.05292 -0.201082,0 -0.455081,0.253999 -0.254,0.243416 -0.486832,0.582082 -0.232833,0.328082 -0.402166,0.666748 -0.169332,0.328082 -0.211666,0.497415 -0.0635,0.275165 0.01058,0.296332 0.07408,0.01058 0.232832,-0.116416 0.15875,-0.137583 0.359832,-0.370416 0.201083,-0.232832 0.380999,-0.455082 0.179916,-0.232832 0.306916,-0.402165 0.137583,-0.179916 0.148166,-0.190499 0.137583,-0.105833 0.275166,-0.09525 0.137583,0.01058 0.232833,0.105833 0.105832,0.08467 0.137582,0.222249 0.04233,0.127 -0.02117,0.264583 -0.07408,0.169332 -0.201083,0.402165 -0.116416,0.232833 -0.148166,0.412749 -0.03175,0.275166 0.0635,0.359832 0.09525,0.08467 0.349249,-0.01058 0.201082,-0.08467 0.423332,-0.296333 0.222249,-0.222249 0.433915,-0.465665 0.222249,-0.243416 0.412749,-0.465665 0.190499,-0.222249 0.317499,-0.328082 0.03175,-0.03175 0.07408,-0.0635 0.05292,-0.04233 0.08467,-0.02117 0.05292,0.02117 0.05292,0.0635 0.01058,0.03175 0.01058,0.07408 -0.137583,0.338666 -0.328082,0.666748 -0.1905,0.328082 -0.433916,0.613831 -0.232832,0.275166 -0.529165,0.497415 -0.285749,0.211666 -0.624414,0.338666 -0.211666,0.07408 -0.380999,0.04233 -0.169333,-0.02117 -0.306916,-0.116416 -0.137583,-0.09525 -0.222249,-0.243416 -0.08467,-0.148166 -0.116416,-0.317499 z"
         style="font-family:'Tahu!';-inkscape-font-specification:'Tahu!'"
         id="path20705" />
    </g>
  </g>
</svg>
